<?xml version="1.0" encoding="utf-8" standalone="no"?>
<!DOCTYPE svg PUBLIC "-//W3C//DTD SVG 1.1//EN"
  "http://www.w3.org/Graphics/SVG/1.1/DTD/svg11.dtd">
<svg xmlns:xlink="http://www.w3.org/1999/xlink" width="338.512587pt" height="332.709289pt" viewBox="0 0 338.512587 332.709289" xmlns="http://www.w3.org/2000/svg" version="1.1">
 <metadata>
  <rdf:RDF xmlns:dc="http://purl.org/dc/elements/1.1/" xmlns:cc="http://creativecommons.org/ns#" xmlns:rdf="http://www.w3.org/1999/02/22-rdf-syntax-ns#">
   <cc:Work>
    <dc:type rdf:resource="http://purl.org/dc/dcmitype/StillImage"/>
    <dc:date>2026-06-12T18:27:19.725036</dc:date>
    <dc:format>image/svg+xml</dc:format>
    <dc:creator>
     <cc:Agent>
      <dc:title>Matplotlib v3.11.0, https://matplotlib.org/</dc:title>
     </cc:Agent>
    </dc:creator>
   </cc:Work>
  </rdf:RDF>
 </metadata>
 <defs>
  <style type="text/css">*{stroke-linejoin: round; stroke-linecap: butt}</style>
 </defs>
 <g id="figure_1">
  <g id="patch_1">
   <path d="M 0 332.709289 
L 338.512587 332.709289 
L 338.512587 0 
L 0 0 
z
" style="fill: #ffffff"/>
  </g>
  <g id="axes_1">
   <g id="patch_2">
    <path d="M 52.312587 284.4 
L 331.312587 284.4 
L 331.312587 7.2 
L 52.312587 7.2 
z
" style="fill: #ffffff"/>
   </g>
   <g id="patch_3">
    <path d="M 52.312587 284.4 
L 63.472587 284.4 
L 63.472587 283.822319 
L 52.312587 283.822319 
z
" clip-path="url(#p08ed71bca6)" style="fill: #1f77b4; stroke: #000000; stroke-linejoin: miter"/>
   </g>
   <g id="patch_4">
    <path d="M 63.472587 284.4 
L 74.632587 284.4 
L 74.632587 284.4 
L 63.472587 284.4 
z
" clip-path="url(#p08ed71bca6)" style="fill: #1f77b4; stroke: #000000; stroke-linejoin: miter"/>
   </g>
   <g id="patch_5">
    <path d="M 74.632587 284.4 
L 85.792587 284.4 
L 85.792587 277.467834 
L 74.632587 277.467834 
z
" clip-path="url(#p08ed71bca6)" style="fill: #1f77b4; stroke: #000000; stroke-linejoin: miter"/>
   </g>
   <g id="patch_6">
    <path d="M 85.792587 284.4 
L 96.952587 284.4 
L 96.952587 274.001751 
L 85.792587 274.001751 
z
" clip-path="url(#p08ed71bca6)" style="fill: #1f77b4; stroke: #000000; stroke-linejoin: miter"/>
   </g>
   <g id="patch_7">
    <path d="M 96.952587 284.4 
L 108.112587 284.4 
L 108.112587 267.069584 
L 96.952587 267.069584 
z
" clip-path="url(#p08ed71bca6)" style="fill: #1f77b4; stroke: #000000; stroke-linejoin: miter"/>
   </g>
   <g id="patch_8">
    <path d="M 108.112587 284.4 
L 119.272587 284.4 
L 119.272587 248.583807 
L 108.112587 248.583807 
z
" clip-path="url(#p08ed71bca6)" style="fill: #1f77b4; stroke: #000000; stroke-linejoin: miter"/>
   </g>
   <g id="patch_9">
    <path d="M 119.272587 284.4 
L 130.432587 284.4 
L 130.432587 228.94267 
L 119.272587 228.94267 
z
" clip-path="url(#p08ed71bca6)" style="fill: #1f77b4; stroke: #000000; stroke-linejoin: miter"/>
   </g>
   <g id="patch_10">
    <path d="M 130.432587 284.4 
L 141.592587 284.4 
L 141.592587 167.130853 
L 130.432587 167.130853 
z
" clip-path="url(#p08ed71bca6)" style="fill: #1f77b4; stroke: #000000; stroke-linejoin: miter"/>
   </g>
   <g id="patch_11">
    <path d="M 141.592587 284.4 
L 152.752587 284.4 
L 152.752587 167.708534 
L 141.592587 167.708534 
z
" clip-path="url(#p08ed71bca6)" style="fill: #1f77b4; stroke: #000000; stroke-linejoin: miter"/>
   </g>
   <g id="patch_12">
    <path d="M 152.752587 284.4 
L 163.912587 284.4 
L 163.912587 101.275274 
L 152.752587 101.275274 
z
" clip-path="url(#p08ed71bca6)" style="fill: #1f77b4; stroke: #000000; stroke-linejoin: miter"/>
   </g>
   <g id="patch_13">
    <path d="M 163.912587 284.4 
L 175.072587 284.4 
L 175.072587 82.211816 
L 163.912587 82.211816 
z
" clip-path="url(#p08ed71bca6)" style="fill: #1f77b4; stroke: #000000; stroke-linejoin: miter"/>
   </g>
   <g id="patch_14">
    <path d="M 175.072587 284.4 
L 186.232587 284.4 
L 186.232587 52.750109 
L 175.072587 52.750109 
z
" clip-path="url(#p08ed71bca6)" style="fill: #1f77b4; stroke: #000000; stroke-linejoin: miter"/>
   </g>
   <g id="patch_15">
    <path d="M 186.232587 284.4 
L 197.392587 284.4 
L 197.392587 20.4 
L 186.232587 20.4 
z
" clip-path="url(#p08ed71bca6)" style="fill: #1f77b4; stroke: #000000; stroke-linejoin: miter"/>
   </g>
   <g id="patch_16">
    <path d="M 197.392587 284.4 
L 208.552587 284.4 
L 208.552587 33.108972 
L 197.392587 33.108972 
z
" clip-path="url(#p08ed71bca6)" style="fill: #1f77b4; stroke: #000000; stroke-linejoin: miter"/>
   </g>
   <g id="patch_17">
    <path d="M 208.552587 284.4 
L 219.712587 284.4 
L 219.712587 52.750109 
L 208.552587 52.750109 
z
" clip-path="url(#p08ed71bca6)" style="fill: #1f77b4; stroke: #000000; stroke-linejoin: miter"/>
   </g>
   <g id="patch_18">
    <path d="M 219.712587 284.4 
L 230.872587 284.4 
L 230.872587 89.721663 
L 219.712587 89.721663 
z
" clip-path="url(#p08ed71bca6)" style="fill: #1f77b4; stroke: #000000; stroke-linejoin: miter"/>
   </g>
   <g id="patch_19">
    <path d="M 230.872587 284.4 
L 242.032587 284.4 
L 242.032587 112.251204 
L 230.872587 112.251204 
z
" clip-path="url(#p08ed71bca6)" style="fill: #1f77b4; stroke: #000000; stroke-linejoin: miter"/>
   </g>
   <g id="patch_20">
    <path d="M 242.032587 284.4 
L 253.192587 284.4 
L 253.192587 161.354048 
L 242.032587 161.354048 
z
" clip-path="url(#p08ed71bca6)" style="fill: #1f77b4; stroke: #000000; stroke-linejoin: miter"/>
   </g>
   <g id="patch_21">
    <path d="M 253.192587 284.4 
L 264.352587 284.4 
L 264.352587 182.728228 
L 253.192587 182.728228 
z
" clip-path="url(#p08ed71bca6)" style="fill: #1f77b4; stroke: #000000; stroke-linejoin: miter"/>
   </g>
   <g id="patch_22">
    <path d="M 264.352587 284.4 
L 275.512587 284.4 
L 275.512587 213.922976 
L 264.352587 213.922976 
z
" clip-path="url(#p08ed71bca6)" style="fill: #1f77b4; stroke: #000000; stroke-linejoin: miter"/>
   </g>
   <g id="patch_23">
    <path d="M 275.512587 284.4 
L 286.672587 284.4 
L 286.672587 235.297155 
L 275.512587 235.297155 
z
" clip-path="url(#p08ed71bca6)" style="fill: #1f77b4; stroke: #000000; stroke-linejoin: miter"/>
   </g>
   <g id="patch_24">
    <path d="M 286.672587 284.4 
L 297.832587 284.4 
L 297.832587 243.962363 
L 286.672587 243.962363 
z
" clip-path="url(#p08ed71bca6)" style="fill: #1f77b4; stroke: #000000; stroke-linejoin: miter"/>
   </g>
   <g id="patch_25">
    <path d="M 297.832587 284.4 
L 308.992587 284.4 
L 308.992587 258.404376 
L 297.832587 258.404376 
z
" clip-path="url(#p08ed71bca6)" style="fill: #1f77b4; stroke: #000000; stroke-linejoin: miter"/>
   </g>
   <g id="patch_26">
    <path d="M 308.992587 284.4 
L 320.152587 284.4 
L 320.152587 265.914223 
L 308.992587 265.914223 
z
" clip-path="url(#p08ed71bca6)" style="fill: #1f77b4; stroke: #000000; stroke-linejoin: miter"/>
   </g>
   <g id="patch_27">
    <path d="M 320.152587 284.4 
L 331.312587 284.4 
L 331.312587 267.069584 
L 320.152587 267.069584 
z
" clip-path="url(#p08ed71bca6)" style="fill: #1f77b4; stroke: #000000; stroke-linejoin: miter"/>
   </g>
   <g id="matplotlib.axis_1">
    <g id="xtick_1">
     <g id="line2d_1">
      <defs>
       <path id="mf14b6a6392" d="M 0 0 
L 0 3.5 
" style="stroke: #000000; stroke-width: 0.8"/>
      </defs>
      <g>
       <use xlink:href="#mf14b6a6392" x="98.812587" y="284.4" style="stroke: #000000; stroke-width: 0.8"/>
      </g>
     </g>
     <g id="text_1">
      <!-- $\mathdefault{−2}$ -->
      <g transform="translate(88.711595 302.469588) scale(0.16 -0.16)">
       <defs>
        <path id="CMSY10-1" d="M 4217 1472 
C 4326 1472 4441 1472 4441 1600 
C 4441 1728 4326 1728 4217 1728 
L 755 1728 
C 646 1728 531 1728 531 1600 
C 531 1472 646 1472 755 1472 
L 4217 1472 
z
" transform="scale(0.015625)"/>
        <path id="CMR17-34" d="M 2668 990 
L 2553 990 
C 2489 537 2438 460 2412 422 
C 2380 371 1920 371 1830 371 
L 601 371 
C 832 620 1280 1073 1824 1596 
C 2214 1966 2668 2400 2668 3033 
C 2668 3788 2067 4224 1395 4224 
C 691 4224 262 3603 262 3027 
C 262 2777 448 2745 524 2745 
C 588 2745 780 2783 780 3007 
C 780 3206 614 3264 524 3264 
C 486 3264 448 3257 422 3244 
C 544 3788 915 4057 1305 4057 
C 1862 4057 2227 3616 2227 3033 
C 2227 2477 1900 1998 1536 1583 
L 262 147 
L 262 0 
L 2515 0 
L 2668 990 
z
" transform="scale(0.015625)"/>
       </defs>
       <use xlink:href="#CMSY10-1" transform="scale(0.996264)"/>
       <use xlink:href="#CMR17-34" transform="translate(77.487468 0) scale(0.996264)"/>
      </g>
     </g>
    </g>
    <g id="xtick_2">
     <g id="line2d_2">
      <g>
       <use xlink:href="#mf14b6a6392" x="191.812587" y="284.4" style="stroke: #000000; stroke-width: 0.8"/>
      </g>
     </g>
     <g id="text_2">
      <!-- $\mathdefault{0}$ -->
      <g transform="translate(187.910593 302.469588) scale(0.16 -0.16)">
       <defs>
        <path id="CMR17-32" d="M 2688 2038 
C 2688 2430 2681 3099 2412 3613 
C 2176 4063 1798 4224 1465 4224 
C 1158 4224 768 4082 524 3620 
C 268 3137 243 2539 243 2038 
C 243 1671 249 1112 448 623 
C 723 -39 1216 -128 1465 -128 
C 1760 -128 2208 -7 2470 604 
C 2662 1048 2688 1568 2688 2038 
z
M 1465 -26 
C 1056 -26 812 328 723 816 
C 652 1196 652 1749 652 2109 
C 652 2604 652 3015 736 3407 
C 857 3954 1216 4121 1465 4121 
C 1728 4121 2067 3947 2188 3420 
C 2272 3054 2278 2623 2278 2109 
C 2278 1691 2278 1176 2201 797 
C 2067 96 1689 -26 1465 -26 
z
" transform="scale(0.015625)"/>
       </defs>
       <use xlink:href="#CMR17-32" transform="scale(0.996264)"/>
      </g>
     </g>
    </g>
    <g id="xtick_3">
     <g id="line2d_3">
      <g>
       <use xlink:href="#mf14b6a6392" x="284.812587" y="284.4" style="stroke: #000000; stroke-width: 0.8"/>
      </g>
     </g>
     <g id="text_3">
      <!-- $\mathdefault{2}$ -->
      <g transform="translate(280.910593 302.469588) scale(0.16 -0.16)">
       <use xlink:href="#CMR17-34" transform="scale(0.996264)"/>
      </g>
     </g>
    </g>
    <g id="text_4">
     <!-- Residual / Standard Deviation -->
     <g transform="translate(86.634936 321.524233) scale(0.16 -0.16)">
      <defs>
       <path id="CMR17-54" d="M 2508 2156 
C 3116 2278 3629 2689 3629 3203 
C 3629 3806 2950 4352 2054 4352 
L 332 4352 
L 332 4185 
C 774 4185 844 4185 844 3896 
L 844 428 
C 844 140 774 140 332 140 
L 332 -26 
C 518 -13 851 -13 1049 -13 
C 1248 -13 1580 -13 1766 -26 
L 1766 140 
C 1324 140 1254 140 1254 428 
L 1254 2112 
L 2003 2112 
C 2368 2112 2572 1964 2662 1881 
C 2918 1632 2918 1459 2918 1024 
C 2918 595 2918 377 3110 160 
C 3353 -103 3680 -128 3821 -128 
C 4294 -128 4365 403 4365 512 
C 4365 550 4365 595 4307 595 
C 4256 595 4249 556 4249 531 
C 4217 115 4032 -26 3833 -26 
C 3481 -26 3443 377 3405 768 
C 3385 902 3373 998 3360 1139 
C 3321 1459 3270 1926 2508 2156 
z
M 1984 2214 
L 1254 2214 
L 1254 3935 
C 1254 4153 1267 4185 1523 4185 
L 1990 4185 
C 2521 4185 3142 3999 3142 3203 
C 3142 2374 2464 2214 1984 2214 
z
" transform="scale(0.015625)"/>
       <path id="CMR17-67" d="M 2438 1503 
C 2464 1529 2464 1542 2464 1606 
C 2464 2251 2118 2816 1388 2816 
C 710 2816 172 2175 172 1394 
C 172 554 780 -64 1459 -64 
C 2176 -64 2457 619 2457 755 
C 2457 800 2419 800 2406 800 
C 2361 800 2355 787 2329 709 
C 2188 270 1836 51 1504 51 
C 1228 51 953 206 780 490 
C 582 819 582 1200 582 1503 
L 2438 1503 
z
M 588 1600 
C 633 2511 1126 2713 1382 2713 
C 1817 2713 2112 2308 2118 1600 
L 588 1600 
z
" transform="scale(0.015625)"/>
       <path id="CMR17-75" d="M 1977 2688 
C 1977 2803 1971 2809 1932 2809 
C 1907 2809 1900 2803 1824 2707 
C 1804 2681 1747 2617 1728 2592 
C 1523 2809 1235 2816 1126 2816 
C 416 2816 160 2444 160 2073 
C 160 1497 812 1363 998 1324 
C 1401 1241 1542 1216 1676 1100 
C 1760 1024 1900 883 1900 652 
C 1900 384 1747 38 1158 38 
C 601 38 403 460 288 1024 
C 268 1113 268 1120 217 1120 
C 166 1120 160 1113 160 985 
L 160 64 
C 160 -52 166 -58 204 -58 
C 236 -58 243 -52 275 0 
C 313 57 409 211 448 275 
C 576 102 800 -64 1158 -64 
C 1792 -64 2131 281 2131 780 
C 2131 1107 1958 1280 1875 1356 
C 1683 1555 1459 1600 1190 1651 
C 838 1728 390 1817 390 2208 
C 390 2374 480 2726 1126 2726 
C 1811 2726 1849 2086 1862 1881 
C 1868 1849 1900 1843 1920 1843 
C 1977 1843 1977 1862 1977 1971 
L 1977 2688 
z
" transform="scale(0.015625)"/>
       <path id="CMR17-6b" d="M 992 3961 
C 992 4102 876 4224 729 4224 
C 588 4224 467 4108 467 3961 
C 467 3820 582 3699 729 3699 
C 870 3699 992 3814 992 3961 
z
M 243 2745 
L 243 2579 
C 601 2579 652 2540 652 2231 
L 652 443 
C 652 198 627 166 217 166 
L 217 0 
C 371 12 646 12 806 12 
C 960 12 1222 12 1369 0 
L 1369 166 
C 992 166 979 205 979 436 
L 979 2816 
L 243 2745 
z
" transform="scale(0.015625)"/>
       <path id="CMR17-66" d="M 1868 4345 
L 1868 4179 
C 2246 4179 2304 4141 2304 3843 
L 2304 2371 
C 2278 2403 2016 2816 1497 2816 
C 844 2816 211 2228 211 1376 
C 211 529 806 -64 1433 -64 
C 1977 -64 2259 361 2291 406 
L 2291 -64 
L 3065 -13 
L 3065 154 
C 2688 154 2630 193 2630 503 
L 2630 4416 
L 1868 4345 
z
M 2291 762 
C 2291 568 2176 393 2028 264 
C 1811 70 1593 38 1472 38 
C 1286 38 620 135 620 1369 
C 620 2636 1363 2713 1529 2713 
C 1824 2713 2060 2545 2208 2313 
C 2291 2177 2291 2157 2291 2041 
L 2291 762 
z
" transform="scale(0.015625)"/>
       <path id="CMR17-77" d="M 1881 2745 
L 1881 2579 
C 2259 2579 2316 2540 2316 2229 
L 2316 1053 
C 2316 510 2028 38 1555 38 
C 1030 38 985 355 985 691 
L 985 2816 
L 211 2745 
L 211 2579 
C 467 2579 640 2579 646 2320 
L 646 1079 
C 646 646 646 368 812 187 
C 896 103 1056 -64 1516 -64 
C 2060 -64 2272 400 2323 536 
L 2329 536 
L 2329 -64 
L 3091 -13 
L 3091 154 
C 2713 154 2656 193 2656 503 
L 2656 2816 
L 1881 2745 
z
" transform="scale(0.015625)"/>
       <path id="CMR17-63" d="M 2304 1656 
C 2304 2048 2304 2275 2035 2534 
C 1798 2751 1523 2816 1305 2816 
C 800 2816 435 2408 435 1977 
C 435 1740 627 1728 665 1728 
C 748 1728 896 1779 896 1958 
C 896 2118 774 2188 665 2188 
C 640 2188 608 2182 588 2176 
C 723 2594 1068 2713 1292 2713 
C 1612 2713 1964 2421 1964 1875 
L 1964 1632 
C 1587 1619 1132 1568 774 1373 
C 371 1147 256 822 256 576 
C 256 77 832 -64 1171 -64 
C 1523 -64 1849 135 1990 505 
C 2003 219 2182 -39 2464 -39 
C 2598 -39 2937 51 2937 563 
L 2937 926 
L 2822 926 
L 2822 557 
C 2822 161 2649 109 2566 109 
C 2304 109 2304 446 2304 732 
L 2304 1656 
z
M 1964 887 
C 1964 323 1568 38 1216 38 
C 896 38 646 278 646 576 
C 646 771 729 1114 1100 1322 
C 1408 1497 1760 1523 1964 1536 
L 1964 887 
z
" transform="scale(0.015625)"/>
       <path id="CMR17-6e" d="M 979 4416 
L 217 4345 
L 217 4179 
C 595 4179 652 4141 652 3835 
L 652 439 
C 652 198 627 166 217 166 
L 217 0 
C 371 12 652 12 812 12 
C 979 12 1260 12 1414 0 
L 1414 166 
C 1004 166 979 191 979 439 
L 979 4416 
z
" transform="scale(0.015625)"/>
       <path id="CMR17-31" d="M 2604 4575 
C 2636 4658 2636 4671 2636 4684 
C 2636 4761 2579 4800 2528 4800 
C 2451 4800 2425 4748 2400 4671 
L 326 -1376 
C 294 -1460 294 -1472 294 -1485 
C 294 -1562 352 -1600 403 -1600 
C 480 -1600 505 -1549 531 -1472 
L 2604 4575 
z
" transform="scale(0.015625)"/>
       <path id="CMR17-55" d="M 2803 4351 
C 2803 4467 2796 4473 2758 4473 
C 2720 4473 2707 4447 2681 4390 
L 2489 3965 
C 2246 4320 1875 4480 1472 4480 
C 819 4480 294 3958 294 3301 
C 294 3101 339 2817 556 2546 
C 793 2250 1017 2198 1529 2063 
C 1721 2011 2041 1927 2105 1901 
C 2470 1747 2662 1360 2662 999 
C 2662 534 2336 38 1779 38 
C 1094 38 454 425 409 1328 
C 403 1431 396 1437 352 1437 
C 300 1437 294 1431 294 1302 
L 294 0 
C 294 -116 300 -122 339 -122 
C 384 -122 396 -90 486 109 
C 492 128 492 141 614 386 
C 934 -39 1472 -128 1779 -128 
C 2476 -128 2969 457 2969 1141 
C 2969 1476 2848 1734 2777 1850 
C 2508 2263 2220 2340 1913 2417 
C 1868 2437 1856 2437 1497 2527 
C 1152 2617 1004 2662 844 2836 
C 665 3036 601 3243 601 3449 
C 601 3868 934 4326 1478 4326 
C 2156 4326 2579 3842 2675 3036 
C 2694 2920 2700 2914 2745 2914 
C 2803 2914 2803 2933 2803 3043 
L 2803 4351 
z
" transform="scale(0.015625)"/>
       <path id="CMR17-76" d="M 966 2585 
L 1862 2585 
L 1862 2752 
L 966 2752 
L 966 3968 
L 851 3968 
C 838 3292 614 2700 70 2687 
L 70 2585 
L 627 2585 
L 627 778 
C 627 655 627 -64 1369 -64 
C 1747 -64 1964 308 1964 784 
L 1964 1151 
L 1849 1151 
L 1849 790 
C 1849 347 1676 51 1408 51 
C 1222 51 966 179 966 765 
L 966 2585 
z
" transform="scale(0.015625)"/>
       <path id="CMR17-70" d="M 2656 1954 
C 2656 2282 2592 2816 1836 2816 
C 1331 2816 1068 2424 972 2166 
L 966 2166 
L 966 2816 
L 211 2745 
L 211 2578 
C 588 2578 646 2540 646 2231 
L 646 443 
C 646 198 620 166 211 166 
L 211 0 
C 364 12 646 12 812 12 
C 979 12 1267 12 1420 0 
L 1420 166 
C 1011 166 985 192 985 443 
L 985 1678 
C 985 2269 1344 2713 1792 2713 
C 2265 2713 2316 2289 2316 1980 
L 2316 443 
C 2316 198 2291 166 1881 166 
L 1881 0 
C 2035 12 2316 12 2483 12 
C 2649 12 2937 12 3091 0 
L 3091 166 
C 2681 166 2656 192 2656 443 
L 2656 1954 
z
" transform="scale(0.015625)"/>
       <path id="CMR17-74" d="M 960 1517 
C 960 2134 1222 2713 1702 2713 
C 1747 2713 1792 2707 1836 2687 
C 1836 2687 1696 2642 1696 2475 
C 1696 2321 1817 2257 1913 2257 
C 1990 2257 2131 2302 2131 2482 
C 2131 2687 1926 2816 1708 2816 
C 1222 2816 1011 2340 947 2115 
L 940 2115 
L 940 2816 
L 198 2745 
L 198 2578 
C 576 2578 633 2540 633 2231 
L 633 443 
C 633 198 608 166 198 166 
L 198 0 
C 352 12 646 12 812 12 
C 998 12 1324 12 1497 0 
L 1497 166 
C 1036 166 960 166 960 455 
L 960 1517 
z
" transform="scale(0.015625)"/>
       <path id="CMR17-46" d="M 332 4352 
L 332 4185 
C 774 4185 844 4185 844 3898 
L 844 453 
C 844 166 774 166 332 166 
L 332 0 
L 2368 0 
C 3398 0 4224 943 4224 2140 
C 4224 3344 3411 4352 2368 4352 
L 332 4352 
z
M 1523 166 
C 1267 166 1254 198 1254 414 
L 1254 3936 
C 1254 4153 1267 4185 1523 4185 
L 2240 4185 
C 2771 4185 3750 3873 3750 2140 
C 3750 1242 3488 879 3366 707 
C 3212 510 2848 166 2240 166 
L 1523 166 
z
" transform="scale(0.015625)"/>
       <path id="CMR17-78" d="M 2502 2173 
C 2560 2315 2662 2572 3033 2585 
L 3033 2752 
C 2912 2745 2752 2739 2630 2739 
C 2496 2739 2284 2739 2156 2752 
L 2156 2585 
C 2316 2572 2406 2495 2406 2328 
C 2406 2270 2406 2257 2368 2167 
L 1664 379 
L 902 2308 
C 864 2392 864 2405 864 2431 
C 864 2585 1075 2585 1171 2585 
L 1171 2752 
C 1017 2739 736 2739 576 2739 
C 403 2739 204 2739 64 2752 
L 64 2585 
C 307 2585 441 2585 518 2386 
L 1446 44 
C 1484 -52 1491 -64 1548 -64 
C 1606 -64 1612 -52 1651 44 
L 2502 2173 
z
" transform="scale(0.015625)"/>
       <path id="CMR17-71" d="M 2758 1356 
C 2758 2176 2163 2816 1465 2816 
C 768 2816 172 2176 172 1356 
C 172 550 768 -64 1465 -64 
C 2163 -64 2758 550 2758 1356 
z
M 1465 51 
C 1164 51 908 230 761 480 
C 601 768 582 1126 582 1408 
C 582 1676 595 2009 761 2297 
C 889 2508 1139 2713 1465 2713 
C 1753 2713 1996 2553 2150 2329 
C 2348 2028 2348 1606 2348 1408 
C 2348 1158 2336 774 2163 467 
C 1984 172 1708 51 1465 51 
z
" transform="scale(0.015625)"/>
      </defs>
      <use xlink:href="#CMR17-54" transform="scale(0.996264)"/>
      <use xlink:href="#CMR17-67" transform="translate(67.791102 0) scale(0.996264)"/>
      <use xlink:href="#CMR17-75" transform="translate(108.276762 0) scale(0.996264)"/>
      <use xlink:href="#CMR17-6b" transform="translate(144.0781 0) scale(0.996264)"/>
      <use xlink:href="#CMR17-66" transform="translate(168.949159 0) scale(0.996264)"/>
      <use xlink:href="#CMR17-77" transform="translate(219.844528 0) scale(0.996264)"/>
      <use xlink:href="#CMR17-63" transform="translate(270.739898 0) scale(0.996264)"/>
      <use xlink:href="#CMR17-6e" transform="translate(316.430375 0) scale(0.996264)"/>
      <use xlink:href="#CMR17-31" transform="translate(371.3774 0) scale(0.996264)"/>
      <use xlink:href="#CMR17-55" transform="translate(447.143844 0) scale(0.996264)"/>
      <use xlink:href="#CMR17-76" transform="translate(498.039213 0) scale(0.996264)"/>
      <use xlink:href="#CMR17-63" transform="translate(533.319981 0) scale(0.996264)"/>
      <use xlink:href="#CMR17-70" transform="translate(579.010458 0) scale(0.996264)"/>
      <use xlink:href="#CMR17-66" transform="translate(629.905828 0) scale(0.996264)"/>
      <use xlink:href="#CMR17-63" transform="translate(680.801198 0) scale(0.996264)"/>
      <use xlink:href="#CMR17-74" transform="translate(726.491675 0) scale(0.996264)"/>
      <use xlink:href="#CMR17-66" transform="translate(761.772443 0) scale(0.996264)"/>
      <use xlink:href="#CMR17-46" transform="translate(842.743779 0) scale(0.996264)"/>
      <use xlink:href="#CMR17-67" transform="translate(913.137335 0) scale(0.996264)"/>
      <use xlink:href="#CMR17-78" transform="translate(953.622995 0) scale(0.996264)"/>
      <use xlink:href="#CMR17-6b" transform="translate(1001.915911 0) scale(0.996264)"/>
      <use xlink:href="#CMR17-63" transform="translate(1026.78697 0) scale(0.996264)"/>
      <use xlink:href="#CMR17-76" transform="translate(1072.477447 0) scale(0.996264)"/>
      <use xlink:href="#CMR17-6b" transform="translate(1107.758214 0) scale(0.996264)"/>
      <use xlink:href="#CMR17-71" transform="translate(1132.629273 0) scale(0.996264)"/>
      <use xlink:href="#CMR17-70" transform="translate(1178.31975 0) scale(0.996264)"/>
     </g>
    </g>
   </g>
   <g id="matplotlib.axis_2">
    <g id="ytick_1">
     <g id="line2d_4">
      <defs>
       <path id="me6d2332fe0" d="M 0 0 
L -3.5 0 
" style="stroke: #000000; stroke-width: 0.8"/>
      </defs>
      <g>
       <use xlink:href="#me6d2332fe0" x="52.312587" y="284.4" style="stroke: #000000; stroke-width: 0.8"/>
      </g>
     </g>
     <g id="text_5">
      <!-- $\mathdefault{0.0}$ -->
      <g transform="translate(25.369064 289.934794) scale(0.16 -0.16)">
       <defs>
        <path id="CMMI12-3b" d="M 1177 307 
C 1177 492 1024 620 870 620 
C 684 620 556 467 556 313 
C 556 128 710 0 864 0 
C 1049 0 1177 153 1177 307 
z
" transform="scale(0.015625)"/>
       </defs>
       <use xlink:href="#CMR17-32" transform="scale(0.996264)"/>
       <use xlink:href="#CMMI12-3b" transform="translate(45.690477 0) scale(0.996264)"/>
       <use xlink:href="#CMR17-32" transform="translate(72.787654 0) scale(0.996264)"/>
      </g>
     </g>
    </g>
    <g id="ytick_2">
     <g id="line2d_5">
      <g>
       <use xlink:href="#me6d2332fe0" x="52.312587" y="223.493987" style="stroke: #000000; stroke-width: 0.8"/>
      </g>
     </g>
     <g id="text_6">
      <!-- $\mathdefault{0.1}$ -->
      <g transform="translate(25.369064 229.028781) scale(0.16 -0.16)">
       <defs>
        <path id="CMR17-33" d="M 1702 4083 
C 1702 4217 1696 4224 1606 4224 
C 1356 3927 979 3833 620 3820 
C 601 3820 569 3820 563 3808 
C 556 3795 556 3782 556 3648 
C 755 3648 1088 3686 1344 3839 
L 1344 467 
C 1344 243 1331 166 780 166 
L 588 166 
L 588 0 
C 896 6 1216 12 1523 12 
C 1830 12 2150 6 2457 0 
L 2457 166 
L 2265 166 
C 1715 166 1702 236 1702 467 
L 1702 4083 
z
" transform="scale(0.015625)"/>
       </defs>
       <use xlink:href="#CMR17-32" transform="scale(0.996264)"/>
       <use xlink:href="#CMMI12-3b" transform="translate(45.690477 0) scale(0.996264)"/>
       <use xlink:href="#CMR17-33" transform="translate(72.787654 0) scale(0.996264)"/>
      </g>
     </g>
    </g>
    <g id="ytick_3">
     <g id="line2d_6">
      <g>
       <use xlink:href="#me6d2332fe0" x="52.312587" y="162.587974" style="stroke: #000000; stroke-width: 0.8"/>
      </g>
     </g>
     <g id="text_7">
      <!-- $\mathdefault{0.2}$ -->
      <g transform="translate(25.369064 168.122768) scale(0.16 -0.16)">
       <use xlink:href="#CMR17-32" transform="scale(0.996264)"/>
       <use xlink:href="#CMMI12-3b" transform="translate(45.690477 0) scale(0.996264)"/>
       <use xlink:href="#CMR17-34" transform="translate(72.787654 0) scale(0.996264)"/>
      </g>
     </g>
    </g>
    <g id="ytick_4">
     <g id="line2d_7">
      <g>
       <use xlink:href="#me6d2332fe0" x="52.312587" y="101.681961" style="stroke: #000000; stroke-width: 0.8"/>
      </g>
     </g>
     <g id="text_8">
      <!-- $\mathdefault{0.3}$ -->
      <g transform="translate(25.369064 107.216755) scale(0.16 -0.16)">
       <defs>
        <path id="CMR17-35" d="M 1414 2176 
C 1984 2176 2233 1673 2233 1094 
C 2233 322 1824 25 1452 25 
C 1113 25 563 193 390 691 
C 422 678 454 678 486 678 
C 640 678 755 780 755 947 
C 755 1132 614 1216 486 1216 
C 377 1216 211 1164 211 927 
C 211 335 787 -128 1465 -128 
C 2176 -128 2720 432 2720 1087 
C 2720 1718 2208 2176 1600 2246 
C 2086 2347 2553 2776 2553 3353 
C 2553 3856 2048 4224 1472 4224 
C 889 4224 377 3862 377 3347 
C 377 3123 544 3084 627 3084 
C 761 3084 876 3167 876 3334 
C 876 3500 761 3584 627 3584 
C 601 3584 569 3584 544 3571 
C 729 3999 1235 4076 1459 4076 
C 1683 4076 2105 3966 2105 3347 
C 2105 3167 2080 2851 1862 2574 
C 1670 2329 1452 2316 1241 2297 
C 1209 2297 1062 2284 1036 2284 
C 992 2278 966 2272 966 2227 
C 966 2182 972 2176 1100 2176 
L 1414 2176 
z
" transform="scale(0.015625)"/>
       </defs>
       <use xlink:href="#CMR17-32" transform="scale(0.996264)"/>
       <use xlink:href="#CMMI12-3b" transform="translate(45.690477 0) scale(0.996264)"/>
       <use xlink:href="#CMR17-35" transform="translate(72.787654 0) scale(0.996264)"/>
      </g>
     </g>
    </g>
    <g id="ytick_5">
     <g id="line2d_8">
      <g>
       <use xlink:href="#me6d2332fe0" x="52.312587" y="40.775947" style="stroke: #000000; stroke-width: 0.8"/>
      </g>
     </g>
     <g id="text_9">
      <!-- $\mathdefault{0.4}$ -->
      <g transform="translate(25.369064 46.310742) scale(0.16 -0.16)">
       <defs>
        <path id="CMR17-36" d="M 2150 4147 
C 2150 4281 2144 4288 2028 4288 
L 128 1254 
L 128 1088 
L 1779 1088 
L 1779 460 
C 1779 230 1766 166 1318 166 
L 1196 166 
L 1196 0 
C 1401 12 1747 12 1964 12 
C 2182 12 2528 12 2732 0 
L 2732 166 
L 2611 166 
C 2163 166 2150 230 2150 460 
L 2150 1088 
L 2803 1088 
L 2803 1254 
L 2150 1254 
L 2150 4147 
z
M 1798 3723 
L 1798 1254 
L 256 1254 
L 1798 3723 
z
" transform="scale(0.015625)"/>
       </defs>
       <use xlink:href="#CMR17-32" transform="scale(0.996264)"/>
       <use xlink:href="#CMMI12-3b" transform="translate(45.690477 0) scale(0.996264)"/>
       <use xlink:href="#CMR17-36" transform="translate(72.787654 0) scale(0.996264)"/>
      </g>
     </g>
    </g>
    <g id="text_10">
     <!-- PDF -->
     <g transform="translate(18.269588 162.162568) rotate(-90) scale(0.16 -0.16)">
      <defs>
       <path id="CMR17-52" d="M 1267 2048 
L 2291 2048 
C 3116 2048 3718 2583 3718 3187 
C 3718 3791 3129 4352 2291 4352 
L 332 4352 
L 332 4185 
C 774 4185 844 4185 844 3899 
L 844 453 
C 844 166 774 166 332 166 
L 332 0 
C 518 12 857 12 1056 12 
C 1254 12 1593 12 1779 0 
L 1779 166 
C 1337 166 1267 166 1267 453 
L 1267 2048 
z
M 1254 2182 
L 1254 3937 
C 1254 4153 1267 4185 1523 4185 
L 2169 4185 
C 2995 4185 3232 3715 3232 3187 
C 3232 2608 2950 2182 2169 2182 
L 1254 2182 
z
" transform="scale(0.015625)"/>
       <path id="CMR17-48" d="M 3481 4339 
L 326 4339 
L 326 4172 
C 768 4172 838 4172 838 3883 
L 838 450 
C 838 166 768 166 326 166 
L 326 0 
C 512 12 870 12 1068 12 
C 1331 12 1638 12 1900 0 
L 1900 166 
L 1760 166 
C 1273 166 1260 229 1260 456 
L 1260 2073 
L 1836 2073 
C 2432 2073 2489 1865 2489 1334 
L 2604 1334 
L 2604 2991 
L 2489 2991 
C 2489 2451 2432 2240 1836 2240 
L 1260 2240 
L 1260 3922 
C 1260 4140 1273 4172 1529 4172 
L 2355 4172 
C 3321 4172 3430 3774 3520 2920 
L 3635 2920 
L 3481 4339 
z
" transform="scale(0.015625)"/>
      </defs>
      <use xlink:href="#CMR17-52" transform="scale(0.996264)"/>
      <use xlink:href="#CMR17-46" transform="translate(62.586301 0) scale(0.996264)"/>
      <use xlink:href="#CMR17-48" transform="translate(132.979856 0) scale(0.996264)"/>
     </g>
    </g>
   </g>
   <g id="line2d_9">
    <path d="M 52.312587 281.700738 
L 56.962587 280.77455 
L 61.147587 279.712364 
L 64.867587 278.549492 
L 68.587587 277.144727 
L 71.842587 275.687328 
L 75.097587 273.988318 
L 78.352587 272.018809 
L 81.142587 270.092577 
L 83.932587 267.926081 
L 86.722587 265.499687 
L 89.512587 262.79384 
L 92.302587 259.78937 
L 95.092587 256.467847 
L 97.882587 252.811963 
L 100.672587 248.805951 
L 103.462587 244.436023 
L 106.252587 239.690837 
L 109.507587 233.669441 
L 112.762587 227.118457 
L 116.017587 220.037674 
L 119.272587 212.435102 
L 122.992587 203.129876 
L 126.712587 193.20697 
L 130.897587 181.379452 
L 135.547587 167.545629 
L 141.592587 148.790631 
L 155.542587 105.15054 
L 159.727587 92.892214 
L 163.447587 82.670343 
L 166.702587 74.385103 
L 169.492587 67.859312 
L 172.282587 61.933069 
L 174.607587 57.495672 
L 176.932587 53.547618 
L 178.792587 50.760701 
L 180.652587 48.318174 
L 182.512587 46.231485 
L 184.372587 44.510484 
L 186.232587 43.163334 
L 187.627587 42.402241 
L 189.022587 41.857133 
L 190.417587 41.529479 
L 191.812587 41.420162 
L 193.207587 41.529479 
L 194.602587 41.857133 
L 195.997587 42.402241 
L 197.392587 43.163334 
L 198.787587 44.138367 
L 200.647587 45.766604 
L 202.507587 47.762729 
L 204.367587 50.117309 
L 206.227587 52.819286 
L 208.552587 56.665958 
L 210.877587 61.007913 
L 213.202587 65.814232 
L 215.992587 72.147104 
L 218.782587 79.037139 
L 222.037587 87.690412 
L 225.757587 98.25453 
L 230.407587 112.222062 
L 236.917587 132.605373 
L 247.612587 166.129016 
L 252.727587 181.379452 
L 256.912587 193.20697 
L 260.632587 203.129876 
L 264.352587 212.435102 
L 267.607587 220.037674 
L 270.862587 227.118457 
L 274.117587 233.669441 
L 277.372587 239.690837 
L 280.627587 245.190131 
L 283.417587 249.498547 
L 286.207587 253.445188 
L 288.997587 257.044203 
L 291.787587 260.311646 
L 294.577587 263.265042 
L 297.367587 265.922968 
L 300.157587 268.304681 
L 302.947587 270.429772 
L 306.202587 272.610864 
L 309.457587 274.500062 
L 312.712587 276.127155 
L 315.967587 277.52062 
L 319.687587 278.861474 
L 323.407587 279.969429 
L 327.592587 280.979528 
L 331.312587 281.700738 
L 331.312587 281.700738 
" clip-path="url(#p08ed71bca6)" style="fill: none; stroke: #ff7f0e; stroke-width: 1.5; stroke-linecap: square"/>
   </g>
   <g id="line2d_10">
    <path d="M 52.312587 283.23181 
L 58.357587 282.606962 
L 63.472587 281.859085 
L 68.122587 280.950023 
L 72.307587 279.897622 
L 76.027587 278.736242 
L 79.747587 277.323233 
L 83.002587 275.847987 
L 86.257587 274.118497 
L 89.512587 272.102986 
L 92.302587 270.122584 
L 95.092587 267.886084 
L 97.882587 265.371656 
L 100.672587 262.557497 
L 103.462587 259.422194 
L 106.252587 255.945125 
L 109.042587 252.106914 
L 111.832587 247.889911 
L 114.622587 243.27871 
L 117.412587 238.260694 
L 120.202587 232.826588 
L 123.457587 225.953971 
L 126.712587 218.507046 
L 129.967587 210.494328 
L 133.222587 201.934671 
L 136.942587 191.521559 
L 141.127587 179.080531 
L 145.777587 164.501019 
L 151.822587 144.710326 
L 165.307587 100.208788 
L 169.492587 87.290501 
L 173.212587 76.545471 
L 176.467587 67.866849 
L 179.257587 61.061044 
L 181.582587 55.89037 
L 183.907587 51.215844 
L 186.232587 47.072496 
L 188.092587 44.161537 
L 189.952587 41.625039 
L 191.812587 39.475558 
L 193.672587 37.723803 
L 195.067587 36.676348 
L 196.462587 35.860554 
L 197.857587 35.278737 
L 199.252587 34.932548 
L 200.647587 34.822973 
L 202.042587 34.950325 
L 203.437587 35.31424 
L 204.832587 35.913683 
L 206.227587 36.746951 
L 207.622587 37.81168 
L 209.017587 39.104859 
L 210.877587 41.178073 
L 212.737587 43.640525 
L 214.597587 46.48001 
L 216.457587 49.68256 
L 218.782587 54.172368 
L 221.107587 59.17114 
L 223.897587 65.789059 
L 226.687587 73.016914 
L 229.942587 82.121297 
L 233.662587 93.260935 
L 237.847587 106.503072 
L 243.892587 126.429142 
L 255.052587 163.343763 
L 260.167587 179.400269 
L 264.352587 191.823321 
L 268.072587 202.21822 
L 271.792587 211.936881 
L 275.047587 219.851631 
L 278.302587 227.198377 
L 281.557587 233.970314 
L 284.812587 240.169791 
L 287.602587 245.035664 
L 290.392587 249.499041 
L 293.182587 253.573638 
L 295.972587 257.275754 
L 298.762587 260.623739 
L 301.552587 263.637487 
L 304.342587 266.337961 
L 307.132587 268.746765 
L 309.922587 270.88575 
L 312.712587 272.776678 
L 315.967587 274.697727 
L 319.222587 276.343034 
L 322.477587 277.74383 
L 326.197587 279.082855 
L 329.917587 280.181091 
L 331.312587 280.538423 
L 331.312587 280.538423 
" clip-path="url(#p08ed71bca6)" style="fill: none; stroke: #ff00ff; stroke-width: 1.5; stroke-linecap: square"/>
   </g>
   <g id="line2d_11">
    <path d="M 200.59524 284.4 
L 200.59524 7.2 
" clip-path="url(#p08ed71bca6)" style="fill: none; stroke-dasharray: 5.55,2.4; stroke-dashoffset: 0; stroke: #000000; stroke-width: 1.5"/>
   </g>
   <g id="patch_28">
    <path d="M 52.312587 284.4 
L 52.312587 7.2 
" style="fill: none; stroke: #000000; stroke-width: 0.8; stroke-linejoin: miter; stroke-linecap: square"/>
   </g>
   <g id="patch_29">
    <path d="M 331.312587 284.4 
L 331.312587 7.2 
" style="fill: none; stroke: #000000; stroke-width: 0.8; stroke-linejoin: miter; stroke-linecap: square"/>
   </g>
   <g id="patch_30">
    <path d="M 52.312587 284.4 
L 331.312587 284.4 
" style="fill: none; stroke: #000000; stroke-width: 0.8; stroke-linejoin: miter; stroke-linecap: square"/>
   </g>
   <g id="patch_31">
    <path d="M 52.312587 7.2 
L 331.312587 7.2 
" style="fill: none; stroke: #000000; stroke-width: 0.8; stroke-linejoin: miter; stroke-linecap: square"/>
   </g>
   <g id="text_11">
    <!-- Mean: 0.19 -->
    <g transform="translate(66.262587 32.129588) scale(0.16 -0.16)">
     <defs>
      <path id="CMR17-4f" d="M 1337 4249 
C 1299 4345 1292 4352 1158 4352 
L 339 4352 
L 339 4185 
C 780 4185 851 4185 851 3898 
L 851 624 
C 851 465 851 166 339 166 
L 339 0 
C 486 12 755 12 915 12 
C 1075 12 1344 12 1491 0 
L 1491 166 
C 979 166 979 465 979 624 
L 979 4159 
L 985 4159 
L 2489 102 
C 2515 38 2528 0 2579 0 
C 2630 0 2643 38 2668 102 
L 4185 4191 
L 4192 4191 
L 4192 453 
C 4192 166 4121 166 3680 166 
L 3680 0 
C 3853 12 4198 12 4384 12 
C 4569 12 4921 12 5094 0 
L 5094 166 
C 4653 166 4582 166 4582 453 
L 4582 3898 
C 4582 4185 4653 4185 5094 4185 
L 5094 4352 
L 4281 4352 
C 4147 4352 4141 4345 4102 4249 
L 2720 516 
L 1337 4249 
z
" transform="scale(0.015625)"/>
      <path id="CMR17-3c" d="M 1062 2489 
C 1062 2649 934 2752 800 2752 
C 672 2752 537 2649 537 2489 
C 537 2329 665 2227 800 2227 
C 928 2227 1062 2329 1062 2489 
z
M 1062 262 
C 1062 422 934 524 800 524 
C 672 524 537 422 537 262 
C 537 102 665 0 800 0 
C 928 0 1062 102 1062 262 
z
" transform="scale(0.015625)"/>
      <path id="CMR17-30" d="M 1062 262 
C 1062 422 934 524 800 524 
C 672 524 537 422 537 262 
C 537 102 665 0 800 0 
C 928 0 1062 102 1062 262 
z
" transform="scale(0.015625)"/>
      <path id="CMR17-3b" d="M 2252 1871 
C 2252 448 1670 25 1190 25 
C 1043 25 684 43 537 281 
C 704 256 825 345 825 505 
C 825 678 684 736 595 736 
C 537 736 364 710 364 492 
C 364 68 742 -128 1203 -128 
C 1939 -128 2688 665 2688 2090 
C 2688 3857 1971 4224 1484 4224 
C 851 4224 243 3664 243 2800 
C 243 2000 761 1408 1414 1408 
C 1952 1408 2188 1910 2252 2122 
L 2252 1871 
z
M 1427 1510 
C 1254 1510 1011 1542 812 1929 
C 678 2181 678 2477 678 2793 
C 678 3174 678 3438 857 3722 
C 947 3857 1113 4076 1484 4076 
C 2240 4076 2240 2909 2240 2651 
C 2240 2193 2035 1510 1427 1510 
z
" transform="scale(0.015625)"/>
     </defs>
     <use xlink:href="#CMR17-4f" transform="scale(0.996264)"/>
     <use xlink:href="#CMR17-67" transform="translate(84.686941 0) scale(0.996264)"/>
     <use xlink:href="#CMR17-63" transform="translate(125.172601 0) scale(0.996264)"/>
     <use xlink:href="#CMR17-70" transform="translate(170.863078 0) scale(0.996264)"/>
     <use xlink:href="#CMR17-3c" transform="translate(221.758448 0) scale(0.996264)"/>
     <use xlink:href="#CMR17-32" transform="translate(287.115167 0) scale(0.996264)"/>
     <use xlink:href="#CMR17-30" transform="translate(332.805644 0) scale(0.996264)"/>
     <use xlink:href="#CMR17-33" transform="translate(357.676702 0) scale(0.996264)"/>
     <use xlink:href="#CMR17-3b" transform="translate(403.36718 0) scale(0.996264)"/>
    </g>
    <!-- $\sigma$: 0.97 -->
    <g transform="translate(66.262587 46.298653) scale(0.16 -0.16)">
     <defs>
      <path id="CMMI12-1c" d="M 3251 2406 
C 3334 2406 3545 2406 3545 2611 
C 3545 2752 3424 2752 3309 2752 
L 1894 2752 
C 934 2752 243 1685 243 932 
C 243 389 595 -64 1171 -64 
C 1926 -64 2752 746 2752 1704 
C 2752 1953 2694 2195 2540 2406 
L 3251 2406 
z
M 1177 64 
C 851 64 614 312 614 753 
C 614 1136 844 2406 1785 2406 
C 2060 2406 2368 2272 2368 1780 
C 2368 1557 2265 1021 2041 651 
C 1811 274 1465 64 1177 64 
z
" transform="scale(0.015625)"/>
      <path id="CMR17-39" d="M 2886 3955 
L 2886 4096 
L 1382 4096 
C 633 4096 620 4166 595 4288 
L 480 4288 
L 294 3104 
L 409 3104 
C 428 3226 473 3552 550 3673 
C 588 3724 1062 3724 1171 3724 
L 2579 3724 
L 1868 2670 
C 1395 1961 1068 1003 1068 166 
C 1068 89 1068 -128 1299 -128 
C 1529 -128 1529 89 1529 172 
L 1529 466 
C 1529 1514 1708 2204 2003 2644 
L 2886 3955 
z
" transform="scale(0.015625)"/>
     </defs>
     <use xlink:href="#CMMI12-1c" transform="scale(0.996264)"/>
     <use xlink:href="#CMR17-3c" transform="translate(59.020054 0) scale(0.996264)"/>
     <use xlink:href="#CMR17-32" transform="translate(124.376773 0) scale(0.996264)"/>
     <use xlink:href="#CMR17-30" transform="translate(170.06725 0) scale(0.996264)"/>
     <use xlink:href="#CMR17-3b" transform="translate(194.938308 0) scale(0.996264)"/>
     <use xlink:href="#CMR17-39" transform="translate(240.628785 0) scale(0.996264)"/>
    </g>
   </g>
   <g id="legend_1">
    <g id="patch_32">
     <path d="M 205.52687 64.598952 
L 320.112587 64.598952 
Q 323.312587 64.598952 323.312587 61.398952 
L 323.312587 18.4 
Q 323.312587 15.2 320.112587 15.2 
L 205.52687 15.2 
Q 202.32687 15.2 202.32687 18.4 
L 202.32687 61.398952 
Q 202.32687 64.598952 205.52687 64.598952 
z
" style="fill: #ffffff; opacity: 0.8; stroke: #cccccc; stroke-linejoin: miter"/>
    </g>
    <g id="line2d_12">
     <path d="M 208.72687 27.2 
L 224.72687 27.2 
L 240.72687 27.2 
" style="fill: none; stroke: #ff7f0e; stroke-width: 1.5; stroke-linecap: square"/>
    </g>
    <g id="text_12">
     <!-- Ideal -->
     <g transform="translate(253.52687 32.8) scale(0.16 -0.16)">
      <defs>
       <path id="CMR17-4b" d="M 1260 3898 
C 1260 4185 1337 4185 1798 4185 
L 1798 4352 
C 1593 4339 1267 4339 1049 4339 
C 832 4339 505 4339 300 4352 
L 300 4185 
C 761 4185 838 4185 838 3898 
L 838 453 
C 838 166 761 166 300 166 
L 300 0 
C 505 12 832 12 1049 12 
C 1267 12 1593 12 1798 0 
L 1798 166 
C 1337 166 1260 166 1260 453 
L 1260 3898 
z
" transform="scale(0.015625)"/>
      </defs>
      <use xlink:href="#CMR17-4b" transform="scale(0.996264)"/>
      <use xlink:href="#CMR17-66" transform="translate(32.638409 0) scale(0.996264)"/>
      <use xlink:href="#CMR17-67" transform="translate(83.533779 0) scale(0.996264)"/>
      <use xlink:href="#CMR17-63" transform="translate(124.019439 0) scale(0.996264)"/>
      <use xlink:href="#CMR17-6e" transform="translate(169.709917 0) scale(0.996264)"/>
     </g>
    </g>
    <g id="line2d_13">
     <path d="M 208.72687 49.499476 
L 224.72687 49.499476 
L 240.72687 49.499476 
" style="fill: none; stroke: #ff00ff; stroke-width: 1.5; stroke-linecap: square"/>
    </g>
    <g id="text_13">
     <!-- Observed -->
     <g transform="translate(253.52687 55.099476) scale(0.16 -0.16)">
      <defs>
       <path id="CMR17-51" d="M 4307 2166 
C 4307 3488 3366 4480 2304 4480 
C 1216 4480 294 3475 294 2166 
C 294 857 1228 -128 2297 -128 
C 3392 -128 4307 876 4307 2166 
z
M 2304 -13 
C 1574 -13 780 722 780 2250 
C 780 3771 1651 4364 2297 4364 
C 2976 4364 3821 3752 3821 2250 
C 3821 696 3008 -13 2304 -13 
z
" transform="scale(0.015625)"/>
       <path id="CMR17-64" d="M 960 4416 
L 198 4345 
L 198 4179 
C 576 4179 633 4141 633 3843 
L 633 -13 
L 748 -13 
L 934 445 
C 1120 141 1395 -64 1766 -64 
C 2406 -64 3052 503 3052 1382 
C 3052 2209 2476 2816 1830 2816 
C 1433 2816 1152 2603 960 2351 
L 960 4416 
z
M 972 2022 
C 972 2138 972 2157 1062 2293 
C 1312 2681 1670 2713 1792 2713 
C 1984 2713 2643 2610 2643 1388 
C 2643 109 1888 38 1734 38 
C 1536 38 1248 115 1043 490 
C 972 613 972 626 972 742 
L 972 2022 
z
" transform="scale(0.015625)"/>
      </defs>
      <use xlink:href="#CMR17-51" transform="scale(0.996264)"/>
      <use xlink:href="#CMR17-64" transform="translate(71.714788 0) scale(0.996264)"/>
      <use xlink:href="#CMR17-75" transform="translate(122.610158 0) scale(0.996264)"/>
      <use xlink:href="#CMR17-67" transform="translate(158.411496 0) scale(0.996264)"/>
      <use xlink:href="#CMR17-74" transform="translate(198.897156 0) scale(0.996264)"/>
      <use xlink:href="#CMR17-78" transform="translate(234.177924 0) scale(0.996264)"/>
      <use xlink:href="#CMR17-67" transform="translate(279.868386 0) scale(0.996264)"/>
      <use xlink:href="#CMR17-66" transform="translate(320.354046 0) scale(0.996264)"/>
     </g>
    </g>
   </g>
  </g>
 </g>
 <defs>
  <clipPath id="p08ed71bca6">
   <rect x="52.312587" y="7.2" width="279" height="277.2"/>
  </clipPath>
 </defs>
</svg>
