<?xml version="1.0" encoding="utf-8" standalone="no"?>
<!DOCTYPE svg PUBLIC "-//W3C//DTD SVG 1.1//EN"
  "http://www.w3.org/Graphics/SVG/1.1/DTD/svg11.dtd">
<svg xmlns:xlink="http://www.w3.org/1999/xlink" width="338.512587pt" height="332.709289pt" viewBox="0 0 338.512587 332.709289" xmlns="http://www.w3.org/2000/svg" version="1.1">
 <metadata>
  <rdf:RDF xmlns:dc="http://purl.org/dc/elements/1.1/" xmlns:cc="http://creativecommons.org/ns#" xmlns:rdf="http://www.w3.org/1999/02/22-rdf-syntax-ns#">
   <cc:Work>
    <dc:type rdf:resource="http://purl.org/dc/dcmitype/StillImage"/>
    <dc:date>2025-05-25T02:11:35.236396</dc:date>
    <dc:format>image/svg+xml</dc:format>
    <dc:creator>
     <cc:Agent>
      <dc:title>Matplotlib v3.10.3, https://matplotlib.org/</dc:title>
     </cc:Agent>
    </dc:creator>
   </cc:Work>
  </rdf:RDF>
 </metadata>
 <defs>
  <style type="text/css">*{stroke-linejoin: round; stroke-linecap: butt}</style>
 </defs>
 <g id="figure_1">
  <g id="patch_1">
   <path d="M 0 332.709289 
L 338.512587 332.709289 
L 338.512587 0 
L 0 0 
z
" style="fill: #ffffff"/>
  </g>
  <g id="axes_1">
   <g id="patch_2">
    <path d="M 52.312587 284.4 
L 331.312587 284.4 
L 331.312587 7.2 
L 52.312587 7.2 
z
" style="fill: #ffffff"/>
   </g>
   <g id="patch_3">
    <path d="M 52.312587 284.4 
L 63.472587 284.4 
L 63.472587 283.237004 
L 52.312587 283.237004 
z
" clip-path="url(#p85c810d095)" style="fill: #1f77b4; stroke: #000000; stroke-linejoin: miter"/>
   </g>
   <g id="patch_4">
    <path d="M 63.472587 284.4 
L 74.632587 284.4 
L 74.632587 281.492511 
L 63.472587 281.492511 
z
" clip-path="url(#p85c810d095)" style="fill: #1f77b4; stroke: #000000; stroke-linejoin: miter"/>
   </g>
   <g id="patch_5">
    <path d="M 74.632587 284.4 
L 85.792587 284.4 
L 85.792587 279.16652 
L 74.632587 279.16652 
z
" clip-path="url(#p85c810d095)" style="fill: #1f77b4; stroke: #000000; stroke-linejoin: miter"/>
   </g>
   <g id="patch_6">
    <path d="M 85.792587 284.4 
L 96.952587 284.4 
L 96.952587 271.607048 
L 85.792587 271.607048 
z
" clip-path="url(#p85c810d095)" style="fill: #1f77b4; stroke: #000000; stroke-linejoin: miter"/>
   </g>
   <g id="patch_7">
    <path d="M 96.952587 284.4 
L 108.112587 284.4 
L 108.112587 264.047577 
L 96.952587 264.047577 
z
" clip-path="url(#p85c810d095)" style="fill: #1f77b4; stroke: #000000; stroke-linejoin: miter"/>
   </g>
   <g id="patch_8">
    <path d="M 108.112587 284.4 
L 119.272587 284.4 
L 119.272587 237.298678 
L 108.112587 237.298678 
z
" clip-path="url(#p85c810d095)" style="fill: #1f77b4; stroke: #000000; stroke-linejoin: miter"/>
   </g>
   <g id="patch_9">
    <path d="M 119.272587 284.4 
L 130.432587 284.4 
L 130.432587 213.457269 
L 119.272587 213.457269 
z
" clip-path="url(#p85c810d095)" style="fill: #1f77b4; stroke: #000000; stroke-linejoin: miter"/>
   </g>
   <g id="patch_10">
    <path d="M 130.432587 284.4 
L 141.592587 284.4 
L 141.592587 173.333921 
L 130.432587 173.333921 
z
" clip-path="url(#p85c810d095)" style="fill: #1f77b4; stroke: #000000; stroke-linejoin: miter"/>
   </g>
   <g id="patch_11">
    <path d="M 141.592587 284.4 
L 152.752587 284.4 
L 152.752587 138.444053 
L 141.592587 138.444053 
z
" clip-path="url(#p85c810d095)" style="fill: #1f77b4; stroke: #000000; stroke-linejoin: miter"/>
   </g>
   <g id="patch_12">
    <path d="M 152.752587 284.4 
L 163.912587 284.4 
L 163.912587 87.853744 
L 152.752587 87.853744 
z
" clip-path="url(#p85c810d095)" style="fill: #1f77b4; stroke: #000000; stroke-linejoin: miter"/>
   </g>
   <g id="patch_13">
    <path d="M 163.912587 284.4 
L 175.072587 284.4 
L 175.072587 57.034361 
L 163.912587 57.034361 
z
" clip-path="url(#p85c810d095)" style="fill: #1f77b4; stroke: #000000; stroke-linejoin: miter"/>
   </g>
   <g id="patch_14">
    <path d="M 175.072587 284.4 
L 186.232587 284.4 
L 186.232587 62.267841 
L 175.072587 62.267841 
z
" clip-path="url(#p85c810d095)" style="fill: #1f77b4; stroke: #000000; stroke-linejoin: miter"/>
   </g>
   <g id="patch_15">
    <path d="M 186.232587 284.4 
L 197.392587 284.4 
L 197.392587 20.4 
L 186.232587 20.4 
z
" clip-path="url(#p85c810d095)" style="fill: #1f77b4; stroke: #000000; stroke-linejoin: miter"/>
   </g>
   <g id="patch_16">
    <path d="M 197.392587 284.4 
L 208.552587 284.4 
L 208.552587 38.426432 
L 197.392587 38.426432 
z
" clip-path="url(#p85c810d095)" style="fill: #1f77b4; stroke: #000000; stroke-linejoin: miter"/>
   </g>
   <g id="patch_17">
    <path d="M 208.552587 284.4 
L 219.712587 284.4 
L 219.712587 72.153304 
L 208.552587 72.153304 
z
" clip-path="url(#p85c810d095)" style="fill: #1f77b4; stroke: #000000; stroke-linejoin: miter"/>
   </g>
   <g id="patch_18">
    <path d="M 219.712587 284.4 
L 230.872587 284.4 
L 230.872587 87.272247 
L 219.712587 87.272247 
z
" clip-path="url(#p85c810d095)" style="fill: #1f77b4; stroke: #000000; stroke-linejoin: miter"/>
   </g>
   <g id="patch_19">
    <path d="M 230.872587 284.4 
L 242.032587 284.4 
L 242.032587 124.488106 
L 230.872587 124.488106 
z
" clip-path="url(#p85c810d095)" style="fill: #1f77b4; stroke: #000000; stroke-linejoin: miter"/>
   </g>
   <g id="patch_20">
    <path d="M 242.032587 284.4 
L 253.192587 284.4 
L 253.192587 164.029956 
L 242.032587 164.029956 
z
" clip-path="url(#p85c810d095)" style="fill: #1f77b4; stroke: #000000; stroke-linejoin: miter"/>
   </g>
   <g id="patch_21">
    <path d="M 253.192587 284.4 
L 264.352587 284.4 
L 264.352587 189.615859 
L 253.192587 189.615859 
z
" clip-path="url(#p85c810d095)" style="fill: #1f77b4; stroke: #000000; stroke-linejoin: miter"/>
   </g>
   <g id="patch_22">
    <path d="M 264.352587 284.4 
L 275.512587 284.4 
L 275.512587 212.294273 
L 264.352587 212.294273 
z
" clip-path="url(#p85c810d095)" style="fill: #1f77b4; stroke: #000000; stroke-linejoin: miter"/>
   </g>
   <g id="patch_23">
    <path d="M 275.512587 284.4 
L 286.672587 284.4 
L 286.672587 229.739207 
L 275.512587 229.739207 
z
" clip-path="url(#p85c810d095)" style="fill: #1f77b4; stroke: #000000; stroke-linejoin: miter"/>
   </g>
   <g id="patch_24">
    <path d="M 286.672587 284.4 
L 297.832587 284.4 
L 297.832587 248.928634 
L 286.672587 248.928634 
z
" clip-path="url(#p85c810d095)" style="fill: #1f77b4; stroke: #000000; stroke-linejoin: miter"/>
   </g>
   <g id="patch_25">
    <path d="M 297.832587 284.4 
L 308.992587 284.4 
L 308.992587 259.977093 
L 297.832587 259.977093 
z
" clip-path="url(#p85c810d095)" style="fill: #1f77b4; stroke: #000000; stroke-linejoin: miter"/>
   </g>
   <g id="patch_26">
    <path d="M 308.992587 284.4 
L 320.152587 284.4 
L 320.152587 258.232599 
L 308.992587 258.232599 
z
" clip-path="url(#p85c810d095)" style="fill: #1f77b4; stroke: #000000; stroke-linejoin: miter"/>
   </g>
   <g id="patch_27">
    <path d="M 320.152587 284.4 
L 331.312587 284.4 
L 331.312587 278.585022 
L 320.152587 278.585022 
z
" clip-path="url(#p85c810d095)" style="fill: #1f77b4; stroke: #000000; stroke-linejoin: miter"/>
   </g>
   <g id="matplotlib.axis_1">
    <g id="xtick_1">
     <g id="line2d_1">
      <defs>
       <path id="m09ef3c7982" d="M 0 0 
L 0 3.5 
" style="stroke: #000000; stroke-width: 0.8"/>
      </defs>
      <g>
       <use xlink:href="#m09ef3c7982" x="98.812587" y="284.4" style="stroke: #000000; stroke-width: 0.8"/>
      </g>
     </g>
     <g id="text_1">
      <!-- $\mathdefault{−2}$ -->
      <g transform="translate(88.711595 302.469588) scale(0.16 -0.16)">
       <defs>
        <path id="CMSY10-0" d="M 4218 1472 
C 4326 1472 4442 1472 4442 1600 
C 4442 1728 4326 1728 4218 1728 
L 755 1728 
C 646 1728 531 1728 531 1600 
C 531 1472 646 1472 755 1472 
L 4218 1472 
z
" transform="scale(0.015625)"/>
        <path id="CMR17-32" d="M 2669 989 
L 2554 989 
C 2490 536 2438 459 2413 420 
C 2381 369 1920 369 1830 369 
L 602 369 
C 832 619 1280 1072 1824 1597 
C 2214 1967 2669 2402 2669 3035 
C 2669 3790 2067 4224 1395 4224 
C 691 4224 262 3604 262 3030 
C 262 2780 448 2748 525 2748 
C 589 2748 781 2787 781 3010 
C 781 3207 614 3264 525 3264 
C 486 3264 448 3258 422 3245 
C 544 3790 915 4058 1306 4058 
C 1862 4058 2227 3617 2227 3035 
C 2227 2479 1901 2000 1536 1584 
L 262 146 
L 262 0 
L 2515 0 
L 2669 989 
z
" transform="scale(0.015625)"/>
       </defs>
       <use xlink:href="#CMSY10-0" transform="scale(0.996264)"/>
       <use xlink:href="#CMR17-32" transform="translate(77.487468 0) scale(0.996264)"/>
      </g>
     </g>
    </g>
    <g id="xtick_2">
     <g id="line2d_2">
      <g>
       <use xlink:href="#m09ef3c7982" x="191.812587" y="284.4" style="stroke: #000000; stroke-width: 0.8"/>
      </g>
     </g>
     <g id="text_2">
      <!-- $\mathdefault{0}$ -->
      <g transform="translate(187.910593 302.469588) scale(0.16 -0.16)">
       <defs>
        <path id="CMR17-30" d="M 2688 2025 
C 2688 2416 2682 3080 2413 3591 
C 2176 4039 1798 4198 1466 4198 
C 1158 4198 768 4058 525 3597 
C 269 3118 243 2524 243 2025 
C 243 1661 250 1106 448 619 
C 723 -39 1216 -128 1466 -128 
C 1760 -128 2208 -7 2470 600 
C 2662 1042 2688 1559 2688 2025 
z
M 1466 -26 
C 1056 -26 813 325 723 812 
C 653 1188 653 1738 653 2096 
C 653 2588 653 2997 736 3387 
C 858 3929 1216 4096 1466 4096 
C 1728 4096 2067 3923 2189 3400 
C 2272 3036 2278 2607 2278 2096 
C 2278 1680 2278 1169 2202 792 
C 2067 95 1690 -26 1466 -26 
z
" transform="scale(0.015625)"/>
       </defs>
       <use xlink:href="#CMR17-30" transform="scale(0.996264)"/>
      </g>
     </g>
    </g>
    <g id="xtick_3">
     <g id="line2d_3">
      <g>
       <use xlink:href="#m09ef3c7982" x="284.812587" y="284.4" style="stroke: #000000; stroke-width: 0.8"/>
      </g>
     </g>
     <g id="text_3">
      <!-- $\mathdefault{2}$ -->
      <g transform="translate(280.910593 302.469588) scale(0.16 -0.16)">
       <use xlink:href="#CMR17-32" transform="scale(0.996264)"/>
      </g>
     </g>
    </g>
    <g id="text_4">
     <!-- Residual / Standard Deviation -->
     <g transform="translate(86.634936 321.524233) scale(0.16 -0.16)">
      <defs>
       <path id="CMR17-52" d="M 2509 2146 
C 3117 2268 3629 2676 3629 3186 
C 3629 3785 2950 4326 2054 4326 
L 333 4326 
L 333 4160 
C 774 4160 845 4160 845 3873 
L 845 415 
C 845 128 774 128 333 128 
L 333 -26 
C 518 -26 851 -26 1050 -26 
C 1248 -26 1581 -26 1766 -26 
L 1766 128 
C 1325 128 1254 128 1254 417 
L 1254 2112 
L 2003 2112 
C 2368 2112 2573 1964 2662 1881 
C 2918 1632 2918 1459 2918 1024 
C 2918 595 2918 377 3110 160 
C 3354 -102 3680 -128 3821 -128 
C 4294 -128 4365 396 4365 503 
C 4365 540 4365 585 4307 585 
C 4256 585 4250 547 4250 522 
C 4218 112 4032 -26 3834 -26 
C 3482 -26 3443 375 3405 764 
C 3386 898 3373 993 3360 1133 
C 3322 1452 3270 1917 2509 2146 
z
M 1984 2214 
L 1254 2214 
L 1254 3913 
C 1254 4129 1267 4160 1523 4160 
L 1990 4160 
C 2522 4160 3142 3977 3142 3190 
C 3142 2372 2464 2214 1984 2214 
z
" transform="scale(0.015625)"/>
       <path id="CMR17-65" d="M 2438 1472 
C 2464 1498 2464 1511 2464 1576 
C 2464 2238 2118 2816 1389 2816 
C 710 2816 173 2169 173 1383 
C 173 551 781 -64 1459 -64 
C 2176 -64 2458 607 2458 740 
C 2458 784 2419 784 2406 784 
C 2362 784 2355 771 2330 696 
C 2189 265 1837 51 1504 51 
C 1229 51 954 203 781 480 
C 582 803 582 1176 582 1472 
L 2438 1472 
z
M 589 1568 
C 634 2505 1126 2714 1382 2714 
C 1818 2714 2112 2297 2118 1568 
L 589 1568 
z
" transform="scale(0.015625)"/>
       <path id="CMR17-73" d="M 1978 2697 
C 1978 2813 1971 2819 1933 2819 
C 1907 2819 1901 2813 1824 2717 
C 1805 2691 1747 2626 1728 2601 
C 1523 2819 1235 2819 1126 2819 
C 416 2819 160 2447 160 2076 
C 160 1498 813 1365 998 1325 
C 1402 1243 1542 1217 1677 1101 
C 1760 1025 1901 884 1901 654 
C 1901 384 1747 38 1158 38 
C 602 38 403 460 288 1021 
C 269 1110 269 1117 218 1117 
C 166 1117 160 1110 160 983 
L 160 63 
C 160 -51 166 -58 205 -58 
C 237 -58 243 -51 275 0 
C 314 57 410 211 448 276 
C 576 103 800 -64 1158 -64 
C 1792 -64 2131 283 2131 784 
C 2131 1112 1958 1285 1875 1362 
C 1683 1561 1459 1606 1190 1657 
C 838 1735 390 1825 390 2217 
C 390 2383 480 2737 1126 2737 
C 1811 2737 1850 2094 1862 1888 
C 1869 1856 1901 1849 1920 1849 
C 1978 1849 1978 1869 1978 1978 
L 1978 2697 
z
" transform="scale(0.015625)"/>
       <path id="CMR17-69" d="M 992 3909 
C 992 4049 877 4170 730 4170 
C 589 4170 467 4056 467 3909 
C 467 3769 582 3648 730 3648 
C 870 3648 992 3763 992 3909 
z
M 243 2706 
L 243 2541 
C 602 2541 653 2502 653 2197 
L 653 427 
C 653 184 627 153 218 153 
L 218 -13 
C 371 0 646 0 806 0 
C 960 0 1222 0 1370 -13 
L 1370 153 
C 992 153 979 191 979 420 
L 979 2776 
L 243 2706 
z
" transform="scale(0.015625)"/>
       <path id="CMR17-64" d="M 1869 4326 
L 1869 4160 
C 2246 4160 2304 4122 2304 3820 
L 2304 2345 
C 2278 2377 2016 2790 1498 2790 
C 845 2790 211 2208 211 1364 
C 211 525 806 -64 1434 -64 
C 1978 -64 2259 337 2291 380 
L 2291 -63 
L 3066 -63 
L 3066 128 
C 2688 128 2630 166 2630 473 
L 2630 4396 
L 1869 4326 
z
M 2291 755 
C 2291 563 2176 390 2029 262 
C 1811 70 1594 38 1472 38 
C 1286 38 621 134 621 1356 
C 621 2612 1363 2688 1530 2688 
C 1824 2688 2061 2522 2208 2291 
C 2291 2157 2291 2138 2291 2023 
L 2291 755 
z
" transform="scale(0.015625)"/>
       <path id="CMR17-75" d="M 1882 2693 
L 1882 2528 
C 2259 2528 2317 2489 2317 2186 
L 2317 1032 
C 2317 500 2029 38 1555 38 
C 1030 38 986 348 986 678 
L 986 2763 
L 211 2693 
L 211 2528 
C 467 2528 640 2528 646 2274 
L 646 1058 
C 646 633 646 361 813 183 
C 896 101 1056 -64 1517 -64 
C 2061 -64 2272 377 2323 506 
L 2330 506 
L 2330 -63 
L 3091 -63 
L 3091 128 
C 2714 128 2656 166 2656 473 
L 2656 2763 
L 1882 2693 
z
" transform="scale(0.015625)"/>
       <path id="CMR17-61" d="M 2304 1653 
C 2304 2072 2304 2294 2035 2543 
C 1798 2752 1523 2816 1306 2816 
C 800 2816 435 2407 435 1971 
C 435 1728 627 1728 666 1728 
C 749 1728 896 1778 896 1954 
C 896 2112 774 2181 666 2181 
C 640 2181 608 2174 589 2168 
C 723 2592 1069 2714 1293 2714 
C 1613 2714 1965 2429 1965 1885 
L 1965 1600 
C 1587 1600 1133 1549 774 1357 
C 371 1133 256 813 256 570 
C 256 77 832 -64 1171 -64 
C 1523 -64 1850 139 1990 511 
C 2003 233 2182 -18 2464 -18 
C 2598 -18 2938 70 2938 567 
L 2938 920 
L 2822 920 
L 2822 562 
C 2822 178 2650 128 2566 128 
C 2304 128 2304 458 2304 738 
L 2304 1653 
z
M 1965 870 
C 1965 317 1568 38 1216 38 
C 896 38 646 275 646 570 
C 646 761 730 1100 1101 1305 
C 1408 1478 1760 1504 1965 1504 
L 1965 870 
z
" transform="scale(0.015625)"/>
       <path id="CMR17-6c" d="M 979 4396 
L 218 4326 
L 218 4160 
C 595 4160 653 4122 653 3817 
L 653 426 
C 653 184 627 153 218 153 
L 218 -13 
C 371 0 653 0 813 0 
C 979 0 1261 0 1414 -13 
L 1414 153 
C 1005 153 979 178 979 426 
L 979 4396 
z
" transform="scale(0.015625)"/>
       <path id="CMR17-2f" d="M 2605 4545 
C 2637 4627 2637 4640 2637 4653 
C 2637 4729 2579 4768 2528 4768 
C 2451 4768 2426 4717 2400 4640 
L 326 -1377 
C 294 -1460 294 -1473 294 -1486 
C 294 -1562 352 -1600 403 -1600 
C 480 -1600 506 -1549 531 -1473 
L 2605 4545 
z
" transform="scale(0.015625)"/>
       <path id="CMR17-53" d="M 2803 4290 
C 2803 4404 2797 4411 2758 4411 
C 2720 4411 2707 4385 2682 4328 
L 2490 3907 
C 2246 4257 1875 4416 1472 4416 
C 819 4416 294 3901 294 3253 
C 294 3056 339 2776 557 2510 
C 794 2218 1018 2167 1530 2033 
C 1722 1982 2042 1899 2106 1874 
C 2470 1722 2662 1341 2662 985 
C 2662 527 2336 38 1779 38 
C 1094 38 454 419 410 1311 
C 403 1413 397 1419 352 1419 
C 301 1419 294 1413 294 1285 
L 294 -1 
C 294 -115 301 -122 339 -122 
C 384 -122 397 -90 486 108 
C 493 127 493 140 614 381 
C 934 -39 1472 -128 1779 -128 
C 2477 -128 2970 451 2970 1124 
C 2970 1454 2848 1708 2778 1823 
C 2509 2230 2221 2306 1914 2382 
C 1869 2402 1856 2402 1498 2490 
C 1152 2579 1005 2624 845 2796 
C 666 2992 602 3196 602 3399 
C 602 3812 934 4263 1478 4263 
C 2157 4263 2579 3786 2675 2993 
C 2694 2878 2701 2872 2746 2872 
C 2803 2872 2803 2891 2803 2999 
L 2803 4290 
z
" transform="scale(0.015625)"/>
       <path id="CMR17-74" d="M 966 2560 
L 1862 2560 
L 1862 2725 
L 966 2725 
L 966 3904 
L 851 3904 
C 838 3245 614 2668 70 2668 
L 70 2560 
L 627 2560 
L 627 771 
C 627 650 627 -64 1370 -64 
C 1747 -64 1965 306 1965 777 
L 1965 1140 
L 1850 1140 
L 1850 783 
C 1850 344 1677 51 1408 51 
C 1222 51 966 178 966 758 
L 966 2560 
z
" transform="scale(0.015625)"/>
       <path id="CMR17-6e" d="M 2656 1933 
C 2656 2259 2592 2790 1837 2790 
C 1331 2790 1069 2400 973 2144 
L 966 2144 
L 966 2790 
L 211 2720 
L 211 2554 
C 589 2554 646 2515 646 2208 
L 646 428 
C 646 184 621 153 211 153 
L 211 -13 
C 365 0 646 0 813 0 
C 979 0 1267 0 1421 -13 
L 1421 153 
C 1011 153 986 178 986 428 
L 986 1658 
C 986 2247 1344 2688 1792 2688 
C 2266 2688 2317 2266 2317 1958 
L 2317 428 
C 2317 184 2291 153 1882 153 
L 1882 -13 
C 2035 0 2317 0 2483 0 
C 2650 0 2938 0 3091 -13 
L 3091 153 
C 2682 153 2656 178 2656 428 
L 2656 1933 
z
" transform="scale(0.015625)"/>
       <path id="CMR17-72" d="M 960 1497 
C 960 2112 1222 2688 1702 2688 
C 1747 2688 1792 2682 1837 2662 
C 1837 2662 1696 2617 1696 2452 
C 1696 2298 1818 2234 1914 2234 
C 1990 2234 2131 2279 2131 2458 
C 2131 2663 1926 2790 1709 2790 
C 1222 2790 1011 2317 947 2093 
L 941 2093 
L 941 2790 
L 198 2720 
L 198 2554 
C 576 2554 634 2515 634 2208 
L 634 428 
C 634 184 608 153 198 153 
L 198 -13 
C 352 0 646 0 813 0 
C 998 0 1325 0 1498 -13 
L 1498 153 
C 1037 153 960 153 960 440 
L 960 1497 
z
" transform="scale(0.015625)"/>
       <path id="CMR17-44" d="M 333 4352 
L 333 4186 
C 774 4186 845 4186 845 3900 
L 845 452 
C 845 166 774 166 333 166 
L 333 0 
L 2368 0 
C 3398 0 4224 943 4224 2141 
C 4224 3346 3411 4352 2368 4352 
L 333 4352 
z
M 1523 166 
C 1267 166 1254 197 1254 414 
L 1254 3938 
C 1254 4155 1267 4186 1523 4186 
L 2240 4186 
C 2771 4186 3750 3874 3750 2141 
C 3750 1242 3488 879 3366 707 
C 3213 510 2848 166 2240 166 
L 1523 166 
z
" transform="scale(0.015625)"/>
       <path id="CMR17-76" d="M 2502 2163 
C 2560 2304 2662 2560 3034 2560 
L 3034 2726 
C 2912 2726 2752 2726 2630 2726 
C 2496 2726 2285 2726 2157 2732 
L 2157 2566 
C 2317 2553 2406 2477 2406 2311 
C 2406 2253 2406 2240 2368 2151 
L 1664 377 
L 902 2286 
C 864 2369 864 2381 864 2407 
C 864 2560 1075 2560 1171 2560 
L 1171 2732 
C 1018 2726 736 2726 576 2726 
C 403 2726 205 2726 64 2732 
L 64 2560 
C 307 2560 442 2560 518 2362 
L 1446 44 
C 1485 -51 1491 -64 1549 -64 
C 1606 -64 1613 -51 1651 44 
L 2502 2163 
z
" transform="scale(0.015625)"/>
       <path id="CMR17-6f" d="M 2758 1356 
C 2758 2176 2163 2816 1466 2816 
C 768 2816 173 2176 173 1356 
C 173 551 768 -64 1466 -64 
C 2163 -64 2758 551 2758 1356 
z
M 1466 51 
C 1165 51 909 230 762 480 
C 602 767 582 1126 582 1408 
C 582 1677 595 2010 762 2298 
C 890 2509 1139 2714 1466 2714 
C 1754 2714 1997 2554 2150 2330 
C 2349 2029 2349 1607 2349 1408 
C 2349 1158 2336 775 2163 467 
C 1984 173 1709 51 1466 51 
z
" transform="scale(0.015625)"/>
      </defs>
      <use xlink:href="#CMR17-52" transform="scale(0.996264)"/>
      <use xlink:href="#CMR17-65" transform="translate(67.791102 0) scale(0.996264)"/>
      <use xlink:href="#CMR17-73" transform="translate(108.276762 0) scale(0.996264)"/>
      <use xlink:href="#CMR17-69" transform="translate(144.0781 0) scale(0.996264)"/>
      <use xlink:href="#CMR17-64" transform="translate(168.949159 0) scale(0.996264)"/>
      <use xlink:href="#CMR17-75" transform="translate(219.844528 0) scale(0.996264)"/>
      <use xlink:href="#CMR17-61" transform="translate(270.739898 0) scale(0.996264)"/>
      <use xlink:href="#CMR17-6c" transform="translate(316.430375 0) scale(0.996264)"/>
      <use xlink:href="#CMR17-2f" transform="translate(371.3774 0) scale(0.996264)"/>
      <use xlink:href="#CMR17-53" transform="translate(447.143844 0) scale(0.996264)"/>
      <use xlink:href="#CMR17-74" transform="translate(498.039213 0) scale(0.996264)"/>
      <use xlink:href="#CMR17-61" transform="translate(533.319981 0) scale(0.996264)"/>
      <use xlink:href="#CMR17-6e" transform="translate(579.010458 0) scale(0.996264)"/>
      <use xlink:href="#CMR17-64" transform="translate(629.905828 0) scale(0.996264)"/>
      <use xlink:href="#CMR17-61" transform="translate(680.801198 0) scale(0.996264)"/>
      <use xlink:href="#CMR17-72" transform="translate(726.491675 0) scale(0.996264)"/>
      <use xlink:href="#CMR17-64" transform="translate(761.772443 0) scale(0.996264)"/>
      <use xlink:href="#CMR17-44" transform="translate(842.743779 0) scale(0.996264)"/>
      <use xlink:href="#CMR17-65" transform="translate(913.137335 0) scale(0.996264)"/>
      <use xlink:href="#CMR17-76" transform="translate(953.622995 0) scale(0.996264)"/>
      <use xlink:href="#CMR17-69" transform="translate(1001.915911 0) scale(0.996264)"/>
      <use xlink:href="#CMR17-61" transform="translate(1026.78697 0) scale(0.996264)"/>
      <use xlink:href="#CMR17-74" transform="translate(1072.477447 0) scale(0.996264)"/>
      <use xlink:href="#CMR17-69" transform="translate(1107.758214 0) scale(0.996264)"/>
      <use xlink:href="#CMR17-6f" transform="translate(1132.629273 0) scale(0.996264)"/>
      <use xlink:href="#CMR17-6e" transform="translate(1178.31975 0) scale(0.996264)"/>
     </g>
    </g>
   </g>
   <g id="matplotlib.axis_2">
    <g id="ytick_1">
     <g id="line2d_4">
      <defs>
       <path id="m9793177730" d="M 0 0 
L -3.5 0 
" style="stroke: #000000; stroke-width: 0.8"/>
      </defs>
      <g>
       <use xlink:href="#m9793177730" x="52.312587" y="284.4" style="stroke: #000000; stroke-width: 0.8"/>
      </g>
     </g>
     <g id="text_5">
      <!-- $\mathdefault{0.0}$ -->
      <g transform="translate(25.369064 289.934794) scale(0.16 -0.16)">
       <defs>
        <path id="CMMI12-3a" d="M 1178 307 
C 1178 492 1024 619 870 619 
C 685 619 557 466 557 313 
C 557 128 710 0 864 0 
C 1050 0 1178 153 1178 307 
z
" transform="scale(0.015625)"/>
       </defs>
       <use xlink:href="#CMR17-30" transform="scale(0.996264)"/>
       <use xlink:href="#CMMI12-3a" transform="translate(45.690477 0) scale(0.996264)"/>
       <use xlink:href="#CMR17-30" transform="translate(72.787654 0) scale(0.996264)"/>
      </g>
     </g>
    </g>
    <g id="ytick_2">
     <g id="line2d_5">
      <g>
       <use xlink:href="#m9793177730" x="52.312587" y="222.561198" style="stroke: #000000; stroke-width: 0.8"/>
      </g>
     </g>
     <g id="text_6">
      <!-- $\mathdefault{0.1}$ -->
      <g transform="translate(25.369064 228.095992) scale(0.16 -0.16)">
       <defs>
        <path id="CMR17-31" d="M 1702 4058 
C 1702 4192 1696 4192 1606 4192 
C 1357 3916 979 3827 621 3827 
C 602 3827 570 3827 563 3808 
C 557 3795 557 3782 557 3648 
C 755 3648 1088 3686 1344 3839 
L 1344 461 
C 1344 236 1331 160 781 160 
L 589 160 
L 589 0 
C 896 0 1216 0 1523 0 
C 1830 0 2150 0 2458 0 
L 2458 160 
L 2266 160 
C 1715 160 1702 230 1702 458 
L 1702 4058 
z
" transform="scale(0.015625)"/>
       </defs>
       <use xlink:href="#CMR17-30" transform="scale(0.996264)"/>
       <use xlink:href="#CMMI12-3a" transform="translate(45.690477 0) scale(0.996264)"/>
       <use xlink:href="#CMR17-31" transform="translate(72.787654 0) scale(0.996264)"/>
      </g>
     </g>
    </g>
    <g id="ytick_3">
     <g id="line2d_6">
      <g>
       <use xlink:href="#m9793177730" x="52.312587" y="160.722396" style="stroke: #000000; stroke-width: 0.8"/>
      </g>
     </g>
     <g id="text_7">
      <!-- $\mathdefault{0.2}$ -->
      <g transform="translate(25.369064 166.257191) scale(0.16 -0.16)">
       <use xlink:href="#CMR17-30" transform="scale(0.996264)"/>
       <use xlink:href="#CMMI12-3a" transform="translate(45.690477 0) scale(0.996264)"/>
       <use xlink:href="#CMR17-32" transform="translate(72.787654 0) scale(0.996264)"/>
      </g>
     </g>
    </g>
    <g id="ytick_4">
     <g id="line2d_7">
      <g>
       <use xlink:href="#m9793177730" x="52.312587" y="98.883595" style="stroke: #000000; stroke-width: 0.8"/>
      </g>
     </g>
     <g id="text_8">
      <!-- $\mathdefault{0.3}$ -->
      <g transform="translate(25.369064 104.418389) scale(0.16 -0.16)">
       <defs>
        <path id="CMR17-33" d="M 1414 2157 
C 1984 2157 2234 1662 2234 1090 
C 2234 320 1824 25 1453 25 
C 1114 25 563 194 390 693 
C 422 680 454 680 486 680 
C 640 680 755 782 755 948 
C 755 1133 614 1216 486 1216 
C 378 1216 211 1165 211 926 
C 211 335 787 -128 1466 -128 
C 2176 -128 2720 430 2720 1085 
C 2720 1707 2208 2157 1600 2227 
C 2086 2328 2554 2756 2554 3329 
C 2554 3820 2048 4179 1472 4179 
C 890 4179 378 3829 378 3329 
C 378 3110 544 3072 627 3072 
C 762 3072 877 3155 877 3321 
C 877 3486 762 3569 627 3569 
C 602 3569 570 3569 544 3557 
C 730 3959 1235 4032 1459 4032 
C 1683 4032 2106 3925 2106 3320 
C 2106 3143 2080 2828 1862 2550 
C 1670 2304 1453 2304 1242 2284 
C 1210 2284 1062 2269 1037 2269 
C 992 2263 966 2257 966 2208 
C 966 2163 973 2157 1101 2157 
L 1414 2157 
z
" transform="scale(0.015625)"/>
       </defs>
       <use xlink:href="#CMR17-30" transform="scale(0.996264)"/>
       <use xlink:href="#CMMI12-3a" transform="translate(45.690477 0) scale(0.996264)"/>
       <use xlink:href="#CMR17-33" transform="translate(72.787654 0) scale(0.996264)"/>
      </g>
     </g>
    </g>
    <g id="ytick_5">
     <g id="line2d_8">
      <g>
       <use xlink:href="#m9793177730" x="52.312587" y="37.044793" style="stroke: #000000; stroke-width: 0.8"/>
      </g>
     </g>
     <g id="text_9">
      <!-- $\mathdefault{0.4}$ -->
      <g transform="translate(25.369064 42.579587) scale(0.16 -0.16)">
       <defs>
        <path id="CMR17-34" d="M 2150 4122 
C 2150 4256 2144 4256 2029 4256 
L 128 1254 
L 128 1088 
L 1779 1088 
L 1779 457 
C 1779 224 1766 160 1318 160 
L 1197 160 
L 1197 0 
C 1402 0 1747 0 1965 0 
C 2182 0 2528 0 2733 0 
L 2733 160 
L 2611 160 
C 2163 160 2150 224 2150 457 
L 2150 1088 
L 2803 1088 
L 2803 1254 
L 2150 1254 
L 2150 4122 
z
M 1798 3703 
L 1798 1254 
L 256 1254 
L 1798 3703 
z
" transform="scale(0.015625)"/>
       </defs>
       <use xlink:href="#CMR17-30" transform="scale(0.996264)"/>
       <use xlink:href="#CMMI12-3a" transform="translate(45.690477 0) scale(0.996264)"/>
       <use xlink:href="#CMR17-34" transform="translate(72.787654 0) scale(0.996264)"/>
      </g>
     </g>
    </g>
    <g id="text_10">
     <!-- PDF -->
     <g transform="translate(18.269588 162.162568) rotate(-90) scale(0.16 -0.16)">
      <defs>
       <path id="CMR17-50" d="M 1267 2042 
L 2291 2042 
C 3117 2042 3718 2578 3718 3184 
C 3718 3791 3130 4352 2291 4352 
L 333 4352 
L 333 4186 
C 774 4186 845 4186 845 3899 
L 845 446 
C 845 160 774 160 333 160 
L 333 0 
C 518 0 858 0 1056 0 
C 1254 0 1594 0 1779 0 
L 1779 160 
C 1338 160 1267 160 1267 446 
L 1267 2042 
z
M 1254 2176 
L 1254 3938 
C 1254 4155 1267 4186 1523 4186 
L 2170 4186 
C 2995 4186 3232 3714 3232 3184 
C 3232 2604 2950 2176 2170 2176 
L 1254 2176 
z
" transform="scale(0.015625)"/>
       <path id="CMR17-46" d="M 3482 4325 
L 326 4325 
L 326 4160 
C 768 4160 838 4160 838 3874 
L 838 446 
C 838 160 768 160 326 160 
L 326 0 
C 512 0 870 0 1069 0 
C 1331 0 1638 0 1901 0 
L 1901 160 
L 1760 160 
C 1274 160 1261 223 1261 452 
L 1261 2075 
L 1837 2075 
C 2432 2075 2490 1865 2490 1332 
L 2605 1332 
L 2605 2987 
L 2490 2987 
C 2490 2450 2432 2240 1837 2240 
L 1261 2240 
L 1261 3911 
C 1261 4128 1274 4160 1530 4160 
L 2355 4160 
C 3322 4160 3430 3765 3520 2916 
L 3635 2916 
L 3482 4325 
z
" transform="scale(0.015625)"/>
      </defs>
      <use xlink:href="#CMR17-50" transform="scale(0.996264)"/>
      <use xlink:href="#CMR17-44" transform="translate(62.586301 0) scale(0.996264)"/>
      <use xlink:href="#CMR17-46" transform="translate(132.979856 0) scale(0.996264)"/>
     </g>
    </g>
   </g>
   <g id="line2d_9">
    <path d="M 52.312587 281.659398 
L 56.962587 280.719025 
L 61.147587 279.640572 
L 64.867587 278.45989 
L 68.587587 277.033611 
L 71.842587 275.553892 
L 75.097587 273.828861 
L 78.352587 271.829188 
L 81.142587 269.873456 
L 83.932587 267.673779 
L 86.722587 265.210225 
L 89.512587 262.462937 
L 92.302587 259.412453 
L 95.092587 256.04006 
L 97.882587 252.328186 
L 100.672587 248.26082 
L 103.462587 243.823966 
L 106.252587 239.006107 
L 109.507587 232.892492 
L 112.762587 226.241177 
L 116.017587 219.051951 
L 119.272587 211.332945 
L 122.992587 201.885207 
L 126.712587 191.810329 
L 130.897587 179.80167 
L 135.547587 165.755979 
L 141.592587 146.713744 
L 155.542587 102.405296 
L 159.727587 89.959231 
L 163.447587 79.580811 
L 166.702587 71.16868 
L 169.492587 64.542944 
L 172.282587 58.52594 
L 174.607587 54.020583 
L 176.932587 50.012064 
L 178.792587 47.182465 
L 180.652587 44.70253 
L 182.512587 42.583884 
L 184.372587 40.836525 
L 185.767587 39.774716 
L 187.162587 38.929301 
L 188.557587 38.302552 
L 189.952587 37.896156 
L 191.347587 37.711209 
L 192.742587 37.748209 
L 194.137587 38.007058 
L 195.532587 38.487056 
L 196.927587 39.18691 
L 198.322587 40.104737 
L 199.717587 41.238073 
L 201.577587 43.079099 
L 203.437587 45.28907 
L 205.297587 47.857573 
L 207.157587 50.772589 
L 209.482587 54.882888 
L 211.807587 59.483868 
L 214.132587 64.542944 
L 216.922587 71.16868 
L 219.712587 78.337898 
L 222.967587 87.296773 
L 226.687587 98.18022 
L 231.337587 112.497477 
L 238.777587 136.264472 
L 247.612587 164.31767 
L 252.727587 179.80167 
L 256.912587 191.810329 
L 260.632587 201.885207 
L 264.352587 211.332945 
L 267.607587 219.051951 
L 270.862587 226.241177 
L 274.117587 232.892492 
L 277.372587 239.006107 
L 280.627587 244.589624 
L 283.417587 248.964024 
L 286.207587 252.971108 
L 288.997587 256.625243 
L 291.787587 259.942728 
L 294.577587 262.941355 
L 297.367587 265.639988 
L 300.157587 268.058178 
L 302.947587 270.215815 
L 306.202587 272.43031 
L 309.457587 274.348443 
L 312.712587 276.000455 
L 315.967587 277.415261 
L 319.687587 278.77665 
L 323.407587 279.901574 
L 327.592587 280.927143 
L 331.312587 281.659398 
L 331.312587 281.659398 
" clip-path="url(#p85c810d095)" style="fill: none; stroke: #ff7f0e; stroke-width: 1.5; stroke-linecap: square"/>
   </g>
   <g id="line2d_10">
    <path d="M 52.312587 282.75736 
L 57.427587 282.076108 
L 62.077587 281.248518 
L 66.262587 280.290628 
L 69.982587 279.233452 
L 73.702587 277.946806 
L 76.957587 276.6028 
L 80.212587 275.026105 
L 83.467587 273.187076 
L 86.257587 271.378339 
L 89.047587 269.33357 
L 91.837587 267.03196 
L 94.627587 264.452535 
L 97.417587 261.574459 
L 100.207587 258.377386 
L 102.997587 254.841852 
L 105.787587 250.949703 
L 108.577587 246.684558 
L 111.367587 242.0323 
L 114.157587 236.981584 
L 116.947587 231.524357 
L 120.202587 224.638381 
L 123.457587 217.194247 
L 126.712587 209.20171 
L 130.432587 199.421599 
L 134.152587 188.997794 
L 138.337587 176.584302 
L 142.987587 162.085867 
L 149.032587 142.477729 
L 161.587587 101.542598 
L 165.772587 88.703093 
L 169.492587 77.979952 
L 172.747587 69.277762 
L 175.537587 62.417031 
L 178.327587 56.181698 
L 180.652587 51.509795 
L 182.977587 47.350846 
L 184.837587 44.413732 
L 186.697587 41.8386 
L 188.557587 39.637824 
L 190.417587 37.82205 
L 191.812587 36.71826 
L 193.207587 35.839075 
L 194.602587 35.186916 
L 195.997587 34.763584 
L 197.392587 34.57025 
L 198.787587 34.607448 
L 200.182587 34.875076 
L 201.577587 35.372394 
L 202.972587 36.098026 
L 204.367587 37.04997 
L 205.762587 38.225606 
L 207.622587 40.135422 
L 209.482587 42.427826 
L 211.342587 45.091747 
L 213.202587 48.114406 
L 215.527587 52.375154 
L 217.852587 57.142526 
L 220.177587 62.381947 
L 222.967587 69.239513 
L 226.222587 77.938492 
L 229.477587 87.278915 
L 233.662587 100.0363 
L 238.777587 116.418754 
L 255.982587 172.258381 
L 260.632587 186.25493 
L 264.817587 198.111765 
L 268.537587 207.977934 
L 271.792587 216.049913 
L 275.047587 223.575748 
L 278.302587 230.544273 
L 281.557587 236.953474 
L 284.812587 242.80948 
L 287.602587 247.398444 
L 290.392587 251.602399 
L 293.182587 255.43586 
L 295.972587 258.915526 
L 298.762587 262.059795 
L 301.552587 264.8883 
L 304.342587 267.421492 
L 307.132587 269.680251 
L 309.922587 271.685545 
L 313.177587 273.73237 
L 316.432587 275.494556 
L 319.687587 277.002915 
L 322.942587 278.286597 
L 326.662587 279.513392 
L 330.382587 280.519557 
L 331.312587 280.740647 
L 331.312587 280.740647 
" clip-path="url(#p85c810d095)" style="fill: none; stroke: #ff00ff; stroke-width: 1.5; stroke-linecap: square"/>
   </g>
   <g id="line2d_11">
    <path d="M 197.86505 284.4 
L 197.86505 7.2 
" clip-path="url(#p85c810d095)" style="fill: none; stroke-dasharray: 5.55,2.4; stroke-dashoffset: 0; stroke: #000000; stroke-width: 1.5"/>
   </g>
   <g id="patch_28">
    <path d="M 52.312587 284.4 
L 52.312587 7.2 
" style="fill: none; stroke: #000000; stroke-width: 0.8; stroke-linejoin: miter; stroke-linecap: square"/>
   </g>
   <g id="patch_29">
    <path d="M 331.312587 284.4 
L 331.312587 7.2 
" style="fill: none; stroke: #000000; stroke-width: 0.8; stroke-linejoin: miter; stroke-linecap: square"/>
   </g>
   <g id="patch_30">
    <path d="M 52.312587 284.4 
L 331.312587 284.4 
" style="fill: none; stroke: #000000; stroke-width: 0.8; stroke-linejoin: miter; stroke-linecap: square"/>
   </g>
   <g id="patch_31">
    <path d="M 52.312587 7.2 
L 331.312587 7.2 
" style="fill: none; stroke: #000000; stroke-width: 0.8; stroke-linejoin: miter; stroke-linecap: square"/>
   </g>
   <g id="text_11">
    <!-- Mean: 0.13 -->
    <g transform="translate(66.262587 32.129588) scale(0.16 -0.16)">
     <defs>
      <path id="CMR17-4d" d="M 1338 4224 
C 1299 4320 1293 4320 1158 4320 
L 339 4320 
L 339 4160 
C 781 4160 851 4160 851 3875 
L 851 610 
C 851 451 851 153 339 153 
L 339 -13 
C 486 0 755 0 915 0 
C 1075 0 1344 0 1491 -13 
L 1491 153 
C 979 153 979 451 979 610 
L 979 4135 
L 986 4135 
L 2490 89 
C 2515 25 2528 -13 2579 -13 
C 2630 -13 2643 25 2669 89 
L 4186 4166 
L 4192 4166 
L 4192 438 
C 4192 153 4122 153 3680 153 
L 3680 -13 
C 3853 0 4198 0 4384 0 
C 4570 0 4922 0 5094 -13 
L 5094 153 
C 4653 153 4582 153 4582 438 
L 4582 3875 
C 4582 4160 4653 4160 5094 4160 
L 5094 4320 
L 4282 4320 
C 4147 4320 4141 4314 4102 4218 
L 2720 502 
L 1338 4224 
z
" transform="scale(0.015625)"/>
      <path id="CMR17-3a" d="M 1062 2491 
C 1062 2650 934 2752 800 2752 
C 672 2752 538 2650 538 2491 
C 538 2332 666 2230 800 2230 
C 928 2230 1062 2332 1062 2491 
z
M 1062 261 
C 1062 420 934 522 800 522 
C 672 522 538 420 538 261 
C 538 102 666 0 800 0 
C 928 0 1062 102 1062 261 
z
" transform="scale(0.015625)"/>
      <path id="CMR17-2e" d="M 1062 261 
C 1062 420 934 522 800 522 
C 672 522 538 420 538 261 
C 538 102 666 0 800 0 
C 928 0 1062 102 1062 261 
z
" transform="scale(0.015625)"/>
     </defs>
     <use xlink:href="#CMR17-4d" transform="scale(0.996264)"/>
     <use xlink:href="#CMR17-65" transform="translate(84.686941 0) scale(0.996264)"/>
     <use xlink:href="#CMR17-61" transform="translate(125.172601 0) scale(0.996264)"/>
     <use xlink:href="#CMR17-6e" transform="translate(170.863078 0) scale(0.996264)"/>
     <use xlink:href="#CMR17-3a" transform="translate(221.758448 0) scale(0.996264)"/>
     <use xlink:href="#CMR17-30" transform="translate(287.115167 0) scale(0.996264)"/>
     <use xlink:href="#CMR17-2e" transform="translate(332.805644 0) scale(0.996264)"/>
     <use xlink:href="#CMR17-31" transform="translate(357.676702 0) scale(0.996264)"/>
     <use xlink:href="#CMR17-33" transform="translate(403.36718 0) scale(0.996264)"/>
    </g>
    <!-- $\sigma$: 0.99 -->
    <g transform="translate(66.262587 48.51257) scale(0.16 -0.16)">
     <defs>
      <path id="CMMI12-1b" d="M 3251 2408 
C 3334 2408 3546 2408 3546 2612 
C 3546 2752 3424 2752 3309 2752 
L 1894 2752 
C 934 2752 243 1686 243 932 
C 243 390 595 -64 1171 -64 
C 1926 -64 2752 747 2752 1705 
C 2752 1954 2694 2196 2541 2408 
L 3251 2408 
z
M 1178 64 
C 851 64 614 313 614 754 
C 614 1137 845 2408 1786 2408 
C 2061 2408 2368 2274 2368 1781 
C 2368 1558 2266 1021 2042 652 
C 1811 275 1466 64 1178 64 
z
" transform="scale(0.015625)"/>
      <path id="CMR17-39" d="M 2253 1864 
C 2253 464 1670 31 1190 31 
C 1043 31 685 31 538 294 
C 704 268 826 357 826 518 
C 826 692 685 749 595 749 
C 538 749 365 723 365 506 
C 365 71 742 -128 1203 -128 
C 1939 -128 2688 674 2688 2073 
C 2688 3817 1971 4179 1485 4179 
C 851 4179 243 3628 243 2778 
C 243 1991 762 1408 1414 1408 
C 1952 1408 2189 1903 2253 2112 
L 2253 1864 
z
M 1427 1510 
C 1254 1510 1011 1542 813 1922 
C 678 2169 678 2461 678 2771 
C 678 3146 678 3405 858 3684 
C 947 3817 1114 4032 1485 4032 
C 2240 4032 2240 2885 2240 2632 
C 2240 2182 2035 1510 1427 1510 
z
" transform="scale(0.015625)"/>
     </defs>
     <use xlink:href="#CMMI12-1b" transform="scale(0.996264)"/>
     <use xlink:href="#CMR17-3a" transform="translate(59.020054 0) scale(0.996264)"/>
     <use xlink:href="#CMR17-30" transform="translate(124.376773 0) scale(0.996264)"/>
     <use xlink:href="#CMR17-2e" transform="translate(170.06725 0) scale(0.996264)"/>
     <use xlink:href="#CMR17-39" transform="translate(194.938308 0) scale(0.996264)"/>
     <use xlink:href="#CMR17-39" transform="translate(240.628785 0) scale(0.996264)"/>
    </g>
   </g>
   <g id="legend_1">
    <g id="patch_32">
     <path d="M 205.52687 64.598952 
L 320.112587 64.598952 
Q 323.312587 64.598952 323.312587 61.398952 
L 323.312587 18.4 
Q 323.312587 15.2 320.112587 15.2 
L 205.52687 15.2 
Q 202.32687 15.2 202.32687 18.4 
L 202.32687 61.398952 
Q 202.32687 64.598952 205.52687 64.598952 
z
" style="fill: #ffffff; opacity: 0.8; stroke: #cccccc; stroke-linejoin: miter"/>
    </g>
    <g id="line2d_12">
     <path d="M 208.72687 27.2 
L 224.72687 27.2 
L 240.72687 27.2 
" style="fill: none; stroke: #ff7f0e; stroke-width: 1.5; stroke-linecap: square"/>
    </g>
    <g id="text_12">
     <!-- Ideal -->
     <g transform="translate(253.52687 32.8) scale(0.16 -0.16)">
      <defs>
       <path id="CMR17-49" d="M 1261 3905 
C 1261 4192 1338 4192 1798 4192 
L 1798 4352 
C 1594 4352 1267 4352 1050 4352 
C 832 4352 506 4352 301 4352 
L 301 4192 
C 762 4192 838 4192 838 3905 
L 838 447 
C 838 160 762 160 301 160 
L 301 0 
C 506 0 832 0 1050 0 
C 1267 0 1594 0 1798 0 
L 1798 160 
C 1338 160 1261 160 1261 447 
L 1261 3905 
z
" transform="scale(0.015625)"/>
      </defs>
      <use xlink:href="#CMR17-49" transform="scale(0.996264)"/>
      <use xlink:href="#CMR17-64" transform="translate(32.638409 0) scale(0.996264)"/>
      <use xlink:href="#CMR17-65" transform="translate(83.533779 0) scale(0.996264)"/>
      <use xlink:href="#CMR17-61" transform="translate(124.019439 0) scale(0.996264)"/>
      <use xlink:href="#CMR17-6c" transform="translate(169.709917 0) scale(0.996264)"/>
     </g>
    </g>
    <g id="line2d_13">
     <path d="M 208.72687 49.499476 
L 224.72687 49.499476 
L 240.72687 49.499476 
" style="fill: none; stroke: #ff00ff; stroke-width: 1.5; stroke-linecap: square"/>
    </g>
    <g id="text_13">
     <!-- Observed -->
     <g transform="translate(253.52687 55.099476) scale(0.16 -0.16)">
      <defs>
       <path id="CMR17-4f" d="M 4307 2135 
C 4307 3437 3366 4416 2304 4416 
C 1216 4416 294 3424 294 2135 
C 294 845 1229 -128 2298 -128 
C 3392 -128 4307 864 4307 2135 
z
M 2304 -13 
C 1574 -13 781 711 781 2217 
C 781 3716 1651 4301 2298 4301 
C 2976 4301 3821 3698 3821 2217 
C 3821 686 3008 -13 2304 -13 
z
" transform="scale(0.015625)"/>
       <path id="CMR17-62" d="M 960 4396 
L 198 4326 
L 198 4160 
C 576 4160 634 4122 634 3817 
L 634 -13 
L 749 -13 
L 934 441 
C 1120 141 1395 -64 1766 -64 
C 2406 -64 3053 500 3053 1370 
C 3053 2188 2477 2790 1830 2790 
C 1434 2790 1152 2579 960 2330 
L 960 4396 
z
M 973 2004 
C 973 2118 973 2138 1062 2272 
C 1312 2657 1670 2688 1792 2688 
C 1984 2688 2643 2585 2643 1376 
C 2643 108 1888 38 1734 38 
C 1536 38 1248 114 1043 486 
C 973 608 973 621 973 735 
L 973 2004 
z
" transform="scale(0.015625)"/>
      </defs>
      <use xlink:href="#CMR17-4f" transform="scale(0.996264)"/>
      <use xlink:href="#CMR17-62" transform="translate(71.714788 0) scale(0.996264)"/>
      <use xlink:href="#CMR17-73" transform="translate(122.610158 0) scale(0.996264)"/>
      <use xlink:href="#CMR17-65" transform="translate(158.411496 0) scale(0.996264)"/>
      <use xlink:href="#CMR17-72" transform="translate(198.897156 0) scale(0.996264)"/>
      <use xlink:href="#CMR17-76" transform="translate(234.177924 0) scale(0.996264)"/>
      <use xlink:href="#CMR17-65" transform="translate(279.868386 0) scale(0.996264)"/>
      <use xlink:href="#CMR17-64" transform="translate(320.354046 0) scale(0.996264)"/>
     </g>
    </g>
   </g>
  </g>
 </g>
 <defs>
  <clipPath id="p85c810d095">
   <rect x="52.312587" y="7.2" width="279" height="277.2"/>
  </clipPath>
 </defs>
</svg>
